<svg width="1920" height="893" viewBox="0 0 1920 893" fill="none" xmlns="http://www.w3.org/2000/svg">
<g clip-path="url(#clip0_756_32)">
<path d="M0 188.522L64 176.616C128 164.874 256 141.061 384 130.973C512 120.72 640 124.028 768 135.934C896 147.676 1024 168.182 1152 166.528C1280 164.874 1408 141.061 1536 127.831C1664 114.602 1792 111.956 1856 110.467L1920 109.144V0H1856C1792 0 1664 0 1536 0C1408 0 1280 0 1152 0C1024 0 896 0 768 0C640 0 512 0 384 0C256 0 128 0 64 0H0V188.522Z" fill="#75B4AA"/>
<path d="M0 894.654H64C128 894.654 256 894.654 384 894.654C512 894.654 640 894.654 768 894.654C896 894.654 1024 894.654 1152 894.654C1280 894.654 1408 894.654 1536 894.654C1664 894.654 1792 894.654 1856 894.654H1920V560.606L1856 571.024C1792 581.608 1664 602.444 1536 633.865C1408 665.285 1280 707.289 1152 707.289C1024 707.289 896 665.285 768 616.005C640 566.724 512 509.837 384 518.767C256 527.532 128 601.948 64 639.157L0 676.365V894.654Z" fill="#317066"/>
</g>
<defs>
<clipPath id="clip0_756_32">
<rect width="1920" height="893" fill="white"/>
</clipPath>
</defs>
</svg>
