<svg width="100" height="100" viewBox="0 0 100 100" fill="none" xmlns="http://www.w3.org/2000/svg">
<path d="M14.5099 99.9996C13.3477 100.001 12.3874 99.1188 12.3265 97.9921L8.42001 26.9348C8.38314 26.338 8.63882 25.7591 9.1093 25.3731C9.47078 24.9343 10.0246 24.6868 10.6033 24.704H69.4335C70.0394 24.7125 70.6181 24.953 71.0421 25.3731C71.3988 25.8221 71.6 26.3683 71.6168 26.9348L67.3648 98.1037C67.247 99.1868 66.3036 100.006 65.1822 99.9999L14.5099 99.9996ZM12.9012 28.8306L16.463 95.8721H63.1135L67.1355 28.8306H12.9012Z" fill="white"/>
<path d="M83.2202 32.9574C80.9343 32.9574 78.7431 32.0757 77.1265 30.507C75.5107 28.9376 74.6025 26.8102 74.6025 24.5911C74.6025 22.3719 75.5106 20.2438 77.1265 18.6752C78.7431 17.1065 80.9345 16.2249 83.2202 16.2249C85.506 16.2249 87.6974 17.1065 89.314 18.6752C90.9298 20.2438 91.838 22.3721 91.838 24.5911C91.838 26.8104 90.9299 28.9376 89.314 30.507C87.6974 32.0757 85.506 32.9574 83.2202 32.9574ZM83.2202 20.352C81.9555 20.1513 80.6643 20.4991 79.6872 21.3044C78.711 22.1098 78.1483 23.2909 78.1483 24.5352C78.1483 25.7794 78.711 26.9606 79.6872 27.7659C80.6642 28.5713 81.9555 28.9199 83.2202 28.7183C84.594 28.4997 85.7787 27.6585 86.4086 26.4533C87.0378 25.248 87.0378 23.8233 86.4086 22.6179C85.7786 21.4126 84.594 20.5708 83.2202 20.3521V20.352Z" fill="white"/>
<path d="M81.7289 53.8184C80.7903 53.8176 79.9576 53.2333 79.661 52.3688L75.9837 40.3214C75.805 39.8032 75.8507 39.2375 76.1112 38.7535C76.3708 38.2695 76.8229 37.9092 77.3631 37.7552L89.7726 34.074V34.0748C90.316 33.9184 90.9035 34.0001 91.3812 34.2974C91.9294 34.4934 92.3254 34.9634 92.4152 35.5244L96.2069 47.4607C96.5107 48.5952 95.8583 49.7646 94.713 50.1375L82.3035 53.7075L81.7289 53.8184ZM80.6949 41.1017L83.2228 49.1333L91.3813 46.6792L88.9679 38.7588L80.6949 41.1017Z" fill="white"/>
<path d="M91.3825 99.7767C88.3031 99.7767 85.4586 98.1816 83.9189 95.5936C82.3792 93.0048 82.3792 89.8153 83.9189 87.2273C85.4586 84.6386 88.3031 83.0442 91.3825 83.0442C94.461 83.0442 97.3055 84.6385 98.8452 87.2273C100.385 89.8153 100.385 93.0048 98.8452 95.5936C97.3055 98.1815 94.461 99.7767 91.3825 99.7767ZM91.3825 87.1713C90.2243 87.1713 89.1133 87.618 88.2951 88.4124C87.4759 89.2077 87.0159 90.2861 87.0159 91.4105C87.0159 92.5341 87.4759 93.6127 88.2951 94.4078C89.1134 95.2023 90.2243 95.6489 91.3825 95.6489C92.5398 95.6489 93.6508 95.2023 94.4699 94.4078C95.2882 93.6126 95.7483 92.5342 95.7483 91.4105C95.7483 90.2862 95.2882 89.2076 94.4699 88.4124C93.6507 87.618 92.5399 87.1713 91.3825 87.1713Z" fill="white"/>
<path d="M74.7176 7.41337C74.4394 6.29755 73.3694 5.54202 72.1897 5.62916L53.3456 8.52927L52.6563 4.95927V4.96004C52.4584 3.4435 51.6272 2.0717 50.3585 1.16675C49.0689 0.248572 47.4636 -0.151375 45.8773 0.0517056L26.344 3.28626C24.8235 3.50725 23.4579 4.31102 22.5522 5.51706C21.5583 6.74726 21.1416 8.32533 21.4029 9.86751L21.9775 13.3254L1.86954 16.3374C1.28766 16.4199 0.763473 16.7265 0.418026 17.1887C0.071779 17.6508 -0.0676834 18.2282 0.0309073 18.7916C0.148728 19.8125 1.0416 20.5828 2.09957 20.5765H2.44421L72.8796 9.86735C73.4615 9.78565 73.9849 9.47908 74.3312 9.01688C74.6774 8.55468 74.8169 7.97654 74.7175 7.41319L74.7176 7.41337ZM25.6541 9.19835C25.6436 8.76571 25.7631 8.33931 25.9987 7.97126C26.2271 7.63045 26.6142 7.42191 27.0326 7.41335L46.5659 4.1788C47.4403 4.10565 48.2322 4.68145 48.4045 5.51716L49.0938 9.19831L26.2282 12.6562L25.6541 9.19835Z" fill="white"/>
<path d="M27.4922 90.0721C26.3301 90.0736 25.3706 89.1912 25.3097 88.0646L21.5179 37.7555C21.4506 36.5634 22.3619 35.5309 23.5857 35.4134C24.7704 35.4071 25.7658 36.2771 25.8836 37.4209L29.6754 87.8415C29.6818 88.9915 28.7857 89.9571 27.6075 90.0723L27.4922 90.0721Z" fill="white"/>
<path d="M51.7382 90.073H51.5082H51.509C50.9287 90.0169 50.3957 89.7376 50.0286 89.298C49.6615 88.8576 49.4908 88.2934 49.5558 87.7308L54.267 37.4218L54.2662 37.421C54.2942 36.867 54.5571 36.3496 54.9923 35.9901C55.4276 35.6314 55.9966 35.4625 56.5649 35.5248C57.1347 35.552 57.6686 35.8072 58.0388 36.2297C58.4083 36.6523 58.5823 37.2047 58.5181 37.7556L53.8069 88.1762C53.746 89.2415 52.8371 90.074 51.7382 90.0725L51.7382 90.073Z" fill="white"/>
<path d="M39.7872 89.96C39.2182 89.9608 38.674 89.7343 38.2828 89.3328C37.8909 88.9321 37.6873 88.3921 37.7186 87.8404V37.5314C37.5671 36.9011 37.7202 36.2381 38.1338 35.7316C38.5481 35.2243 39.1781 34.9286 39.8449 34.9286C40.511 34.9286 41.141 35.2243 41.5553 35.7316C41.9697 36.2381 42.122 36.9011 41.9705 37.5314V87.8404C42.0042 88.4123 41.7846 88.9702 41.3678 89.3748C40.951 89.7803 40.3755 89.9927 39.7872 89.96H39.7872Z" fill="white"/>
</svg>
