<svg width="20" height="19" viewBox="0 0 20 19" fill="none" xmlns="http://www.w3.org/2000/svg">
<path d="M0.721879 3.28254C0.502065 3.40468 0.319411 3.58161 0.192583 3.79523C0.0657543 4.00885 -0.000701191 4.25151 7.47432e-06 4.49842V17.4312C-0.00079088 17.6721 0.0623795 17.9092 0.18336 18.1192C0.304341 18.3292 0.479005 18.5051 0.690324 18.6296C0.901643 18.7541 1.14241 18.8231 1.38914 18.8297C1.63588 18.8364 1.88018 18.7805 2.09821 18.6675C2.11741 18.6575 2.13616 18.647 2.15446 18.6353L5.91069 16.2362C5.96057 16.2045 6.00153 16.161 6.02983 16.1099C6.05813 16.0587 6.07288 16.0015 6.07274 15.9434V0.367488C6.07293 0.303979 6.05533 0.241627 6.02187 0.187164C5.9884 0.132702 5.94033 0.0881987 5.88284 0.0584586C5.82536 0.0287185 5.76064 0.0148716 5.69569 0.0184131C5.63073 0.0219546 5.568 0.0427498 5.51426 0.0785537L0.721879 3.28254ZM8.05175 0.056328C7.9979 0.0221589 7.93561 0.00279688 7.87144 0.0002809C7.80727 -0.00223508 7.74359 0.0121881 7.6871 0.0420315C7.63062 0.071875 7.58343 0.116034 7.5505 0.169859C7.51756 0.223684 7.50011 0.285182 7.49997 0.347877V15.9303C7.49983 15.9884 7.51458 16.0457 7.54288 16.0968C7.57118 16.148 7.61214 16.1914 7.66202 16.2231L11.9477 18.9434C12.0016 18.9777 12.064 18.9972 12.1283 18.9997C12.1925 19.0023 12.2563 18.9878 12.3129 18.9579C12.3695 18.928 12.4167 18.8837 12.4496 18.8298C12.4825 18.7758 12.4999 18.7142 12.4999 18.6514V3.07902C12.5001 3.02078 12.4853 2.96342 12.4569 2.91218C12.4286 2.86095 12.3875 2.81748 12.3374 2.78573L8.05175 0.056328ZM19.3093 0.36836C19.0987 0.242581 18.8581 0.172854 18.6114 0.166125C18.3647 0.159396 18.1204 0.215901 17.903 0.330009C17.8838 0.339656 17.8652 0.350425 17.8472 0.362258L14.0906 2.75915C14.0407 2.7909 13.9997 2.83433 13.9714 2.88548C13.9431 2.93663 13.9284 2.99387 13.9285 3.05201V18.6301C13.9283 18.6936 13.9458 18.7561 13.9793 18.8106C14.0128 18.8651 14.0609 18.9097 14.1185 18.9394C14.1761 18.9692 14.2409 18.983 14.3059 18.9794C14.3709 18.9758 14.4337 18.9549 14.4874 18.919L19.2673 15.7176C19.4898 15.5965 19.675 15.4194 19.8038 15.2049C19.9326 14.9903 20.0003 14.7461 19.9999 14.4974V1.59775C20.0028 1.35214 19.9408 1.10995 19.8198 0.894589C19.6989 0.679227 19.523 0.497976 19.3093 0.36836Z" fill="white"/>
</svg>
