<svg width="19" height="19" viewBox="0 0 19 19" fill="none" xmlns="http://www.w3.org/2000/svg">
<path d="M7.29464 8.82143H1.52679C1.12186 8.82143 0.733513 8.66057 0.447185 8.37424C0.160857 8.08792 0 7.69957 0 7.29464V1.52679C0 1.12186 0.160857 0.733513 0.447185 0.447185C0.733513 0.160857 1.12186 0 1.52679 0H7.29464C7.69957 0 8.08792 0.160857 8.37424 0.447185C8.66057 0.733513 8.82143 1.12186 8.82143 1.52679V7.29464C8.82143 7.69957 8.66057 8.08792 8.37424 8.37424C8.08792 8.66057 7.69957 8.82143 7.29464 8.82143ZM17.4732 8.82143H11.7054C11.3004 8.82143 10.9121 8.66057 10.6258 8.37424C10.3394 8.08792 10.1786 7.69957 10.1786 7.29464V1.52679C10.1786 1.12186 10.3394 0.733513 10.6258 0.447185C10.9121 0.160857 11.3004 0 11.7054 0H17.4732C17.8781 0 18.2665 0.160857 18.5528 0.447185C18.8391 0.733513 19 1.12186 19 1.52679V7.29464C19 7.69957 18.8391 8.08792 18.5528 8.37424C18.2665 8.66057 17.8781 8.82143 17.4732 8.82143ZM7.29464 19H1.52679C1.12186 19 0.733513 18.8391 0.447185 18.5528C0.160857 18.2665 0 17.8781 0 17.4732V11.7054C0 11.3004 0.160857 10.9121 0.447185 10.6258C0.733513 10.3394 1.12186 10.1786 1.52679 10.1786H7.29464C7.69957 10.1786 8.08792 10.3394 8.37424 10.6258C8.66057 10.9121 8.82143 11.3004 8.82143 11.7054V17.4732C8.82143 17.8781 8.66057 18.2665 8.37424 18.5528C8.08792 18.8391 7.69957 19 7.29464 19ZM17.4732 19H11.7054C11.3004 19 10.9121 18.8391 10.6258 18.5528C10.3394 18.2665 10.1786 17.8781 10.1786 17.4732V11.7054C10.1786 11.3004 10.3394 10.9121 10.6258 10.6258C10.9121 10.3394 11.3004 10.1786 11.7054 10.1786H17.4732C17.8781 10.1786 18.2665 10.3394 18.5528 10.6258C18.8391 10.9121 19 11.3004 19 11.7054V17.4732C19 17.8781 18.8391 18.2665 18.5528 18.5528C18.2665 18.8391 17.8781 19 17.4732 19Z" fill="white"/>
</svg>
