<svg width="21" height="19" viewBox="0 0 21 19" fill="none" xmlns="http://www.w3.org/2000/svg">
<path d="M4.60714 12.5714H0.964286C0.708541 12.5714 0.463271 12.4698 0.282433 12.289C0.101594 12.1082 0 11.8629 0 11.6071V7.96429C0 7.70854 0.101594 7.46327 0.282433 7.28243C0.463271 7.10159 0.708541 7 0.964286 7H4.60714C4.86289 7 5.10816 7.10159 5.289 7.28243C5.46983 7.46327 5.57143 7.70854 5.57143 7.96429V11.6071C5.57143 11.8629 5.46983 12.1082 5.289 12.289C5.10816 12.4698 4.86289 12.5714 4.60714 12.5714ZM4.60714 19H0.964286C0.708541 19 0.463271 18.8984 0.282433 18.7176C0.101594 18.5367 0 18.2915 0 18.0357V14.3929C0 14.1371 0.101594 13.8918 0.282433 13.711C0.463271 13.5302 0.708541 13.4286 0.964286 13.4286H4.60714C4.86289 13.4286 5.10816 13.5302 5.289 13.711C5.46983 13.8918 5.57143 14.1371 5.57143 14.3929V18.0357C5.57143 18.2915 5.46983 18.5367 5.289 18.7176C5.10816 18.8984 4.86289 19 4.60714 19ZM11.0357 19H7.39286C7.13711 19 6.89184 18.8984 6.711 18.7176C6.53017 18.5367 6.42857 18.2915 6.42857 18.0357V14.3929C6.42857 14.1371 6.53017 13.8918 6.711 13.711C6.89184 13.5302 7.13711 13.4286 7.39286 13.4286H11.0357C11.2915 13.4286 11.5367 13.5302 11.7176 13.711C11.8984 13.8918 12 14.1371 12 14.3929V18.0357C12 18.2915 11.8984 18.5367 11.7176 18.7176C11.5367 18.8984 11.2915 19 11.0357 19Z" fill="white"/>
<path d="M8.46922 2.07318C8.32634 2.15033 8.20762 2.26207 8.12518 2.39699C8.04274 2.5319 7.99954 2.68517 8 2.84111V11.0092C7.99949 11.1613 8.04055 11.3111 8.11918 11.4437C8.19782 11.5764 8.31135 11.6874 8.44871 11.7661C8.58607 11.8447 8.74256 11.8882 8.90294 11.8924C9.06332 11.8966 9.22211 11.8614 9.36384 11.79C9.37631 11.7837 9.3885 11.7771 9.4004 11.7696L11.8419 10.2544C11.8744 10.2344 11.901 10.207 11.9194 10.1747C11.9378 10.1424 11.9474 10.1062 11.9473 10.0695V0.232098C11.9474 0.191986 11.936 0.152606 11.9142 0.118209C11.8925 0.0838119 11.8612 0.0557045 11.8238 0.0369212C11.7865 0.018138 11.7444 0.0093926 11.7022 0.0116293C11.66 0.0138661 11.6192 0.0269999 11.5843 0.0496128L8.46922 2.07318ZM13.2336 0.0355756C13.1986 0.0139951 13.1581 0.00176645 13.1164 0.00017741C13.0747 -0.00141163 13.0333 0.00769773 12.9966 0.0265462C12.9599 0.0453948 12.9292 0.0732848 12.9078 0.107279C12.8864 0.141274 12.8751 0.180115 12.875 0.219712V10.0612C12.8749 10.0979 12.8845 10.1341 12.9029 10.1664C12.9213 10.1987 12.9479 10.2261 12.9803 10.2462L15.766 11.9642C15.801 11.9859 15.8416 11.9982 15.8834 11.9998C15.9251 12.0014 15.9666 11.9923 16.0034 11.9734C16.0401 11.9545 16.0709 11.9266 16.0923 11.8925C16.1137 11.8584 16.125 11.8195 16.125 11.7798V1.94465C16.1251 1.90786 16.1155 1.87163 16.097 1.83927C16.0786 1.80692 16.0519 1.77946 16.0193 1.75941L13.2336 0.0355756ZM20.551 0.232648C20.4142 0.153209 20.2578 0.109171 20.0974 0.104921C19.937 0.100671 19.7783 0.136359 19.637 0.208427C19.6245 0.214519 19.6123 0.221321 19.6007 0.228795L17.1589 1.74262C17.1264 1.76268 17.0998 1.7901 17.0814 1.82241C17.063 1.85471 17.0534 1.89087 17.0535 1.92758V11.7663C17.0534 11.8065 17.0648 11.8459 17.0866 11.8804C17.1083 11.9148 17.1396 11.943 17.177 11.9617C17.2144 11.9805 17.2566 11.9893 17.2988 11.987C17.3411 11.9847 17.3819 11.9715 17.4168 11.9488L20.5238 9.92691C20.6684 9.85039 20.7888 9.73859 20.8725 9.60308C20.9562 9.46758 21.0002 9.3133 20.9999 9.15624V1.0091C21.0018 0.853985 20.9615 0.701023 20.8829 0.565004C20.8043 0.428985 20.69 0.314511 20.551 0.232648Z" fill="white"/>
</svg>
