<svg width="100" height="100" viewBox="0 0 100 100" fill="none" xmlns="http://www.w3.org/2000/svg">
<path d="M81.7936 41.666C81.7936 25.1236 67.7012 11.6661 50.3783 11.6661C33.0553 11.6661 18.9629 25.1236 18.9629 41.666C18.9629 47.0536 20.3864 52.3549 23.1017 57.0781C25.8162 61.8013 29.7355 65.7939 34.4953 68.6866L38.1612 70.9142V91.6665C38.1612 92.0273 38.2843 92.3778 38.5118 92.6657L38.5102 92.6665L43.7461 99.3331C44.0757 99.7527 44.5931 99.9998 45.1424 99.9998H55.6142C56.1635 99.9998 56.6808 99.7527 57.0104 99.3331L62.2463 92.6665L62.2447 92.6657C62.4722 92.3778 62.5954 92.0273 62.5954 91.6665V70.9142L66.2613 68.6866C71.0211 65.7937 74.9403 61.8013 77.6548 57.0781C80.3701 52.3549 81.7936 47.0536 81.7936 41.666H81.7936ZM59.1048 76.6658V78.7982L41.6518 84.3539V76.6658H59.1048ZM41.6518 87.8667L59.1048 82.3109V89.9991H41.6518V87.8667ZM54.7415 96.6657H46.015L43.3971 93.3324H57.3595L54.7415 96.6657ZM64.3865 65.8735L59.9126 68.5921C59.4093 68.8979 59.1046 69.4284 59.1046 69.9984V73.3317H55.614V58.8169L67.5584 40.8928V40.8935C67.9971 40.2343 67.8981 39.372 67.32 38.8198L62.0841 33.8199C61.4024 33.1688 60.2975 33.1688 59.6158 33.8199L55.6141 37.6412L51.6125 33.8199C50.9308 33.1688 49.8259 33.1688 49.1442 33.8199L45.1425 37.6412L41.1409 33.8199L38.6726 36.177L43.9085 41.177C44.5902 41.828 45.6951 41.828 46.3768 41.177L50.3784 37.3557L54.3801 41.177C55.0618 41.828 56.1667 41.828 56.8484 41.177L60.85 37.3557L63.8615 40.2315L52.3964 57.4367C52.218 57.7045 52.1237 58.0148 52.1237 58.3318V73.3317H41.6519V69.9984C41.6519 69.4284 41.3473 68.898 40.8439 68.5921L36.37 65.8735C27.6824 60.6242 22.4271 51.4821 22.4535 41.666C22.4535 32.1392 27.7759 23.3358 36.4159 18.5728C45.0558 13.8086 55.7007 13.8086 64.3406 18.5728C72.9806 23.3362 78.303 32.1398 78.303 41.666C78.3295 51.4829 73.0741 60.625 64.3865 65.8735L64.3865 65.8735Z" fill="white"/>
<path d="M48.6321 -0.000244141H52.1227V6.66639H48.6321V-0.000244141Z" fill="white"/>
<path d="M26.1754 6.6387L29.1985 4.97205L32.6891 10.7457L29.666 12.4124L26.1754 6.6387Z" fill="white"/>
<path d="M10.2072 23.1101L11.9525 20.2233L17.9986 23.5566L16.2533 26.4434L10.2072 23.1101Z" fill="white"/>
<path d="M5 41.6665H11.9812V44.9998H5V41.6665Z" fill="white"/>
<path d="M10.2072 63.5552L16.2533 60.2219L17.9986 63.1088L11.9525 66.4421L10.2072 63.5552Z" fill="white"/>
<path d="M26.1754 80.026L29.666 74.2523L32.6891 75.919L29.1985 81.6927L26.1754 80.026Z" fill="white"/>
<path d="M68.0642 75.9218L71.0873 74.2551L74.5779 80.0288L71.5548 81.6955L68.0642 75.9218Z" fill="white"/>
<path d="M82.7581 63.1088L84.5034 60.2219L90.5495 63.5552L88.8042 66.4421L82.7581 63.1088Z" fill="white"/>
<path d="M88.7744 41.6665H95.7556V44.9998H88.7744V41.6665Z" fill="white"/>
<path d="M82.7581 23.5562L88.8042 20.2229L90.5495 23.1097L84.5034 26.4431L82.7581 23.5562Z" fill="white"/>
<path d="M68.0642 10.745L71.5548 4.97131L74.5779 6.63797L71.0873 12.4117L68.0642 10.745Z" fill="white"/>
</svg>
