<svg width="151" height="151" viewBox="0 0 151 151" fill="none" xmlns="http://www.w3.org/2000/svg">
<path d="M75.5 151C117.198 151 151 117.198 151 75.5C151 33.8025 117.198 0 75.5 0C33.8025 0 0 33.8025 0 75.5C0 117.198 33.8025 151 75.5 151Z" fill="url(#paint0_radial_127_1646)"/>
<path d="M57.6582 52.5537H64.9871C65.3758 52.5537 65.7488 52.4094 66.0236 52.1524C66.2984 51.8955 66.4529 51.5468 66.4529 51.1835V44.3324C66.4529 43.969 66.2984 43.6204 66.0236 43.3634C65.7488 43.1065 65.3758 42.9622 64.9871 42.9622H57.6582C56.8487 42.9622 56.1924 43.5757 56.1924 44.3324V51.1835C56.1924 51.5468 56.3468 51.8955 56.6216 52.1524C56.8965 52.4093 57.2695 52.5537 57.6582 52.5537ZM59.124 45.7026H63.5213V49.8133H59.124V45.7026Z" fill="white"/>
<path d="M72.3173 52.5537H79.6463C80.035 52.5537 80.408 52.4094 80.6828 52.1524C80.9576 51.8955 81.1121 51.5468 81.1121 51.1835V44.3324C81.1121 43.969 80.9576 43.6204 80.6828 43.3634C80.408 43.1065 80.035 42.9622 79.6463 42.9622H72.3173C71.5079 42.9622 70.8516 43.5757 70.8516 44.3324V51.1835C70.8516 51.5468 71.006 51.8955 71.2808 52.1524C71.5557 52.4093 71.9287 52.5537 72.3173 52.5537ZM73.7831 45.7026H78.1805V49.8133H73.7831V45.7026Z" fill="white"/>
<path d="M64.9871 64.8838C65.3758 64.8838 65.7488 64.7394 66.0236 64.4825C66.2984 64.2256 66.4529 63.8769 66.4529 63.5136V56.6625C66.4529 56.2991 66.2984 55.9504 66.0236 55.6935C65.7488 55.4366 65.3758 55.2922 64.9871 55.2922H57.6582C56.8487 55.2922 56.1924 55.9058 56.1924 56.6625V63.5136C56.1924 63.8769 56.3468 64.2256 56.6216 64.4825C56.8965 64.7394 57.2695 64.8838 57.6582 64.8838H64.9871ZM59.124 58.0327H63.5213V62.1433H59.124V58.0327Z" fill="white"/>
<path d="M72.3173 64.8838H79.6463C80.035 64.8838 80.408 64.7394 80.6828 64.4825C80.9576 64.2256 81.1121 63.8769 81.1121 63.5136V56.6625C81.1121 56.2991 80.9576 55.9504 80.6828 55.6935C80.408 55.4366 80.035 55.2922 79.6463 55.2922H72.3173C71.5079 55.2922 70.8516 55.9058 70.8516 56.6625V63.5136C70.8516 63.8769 71.006 64.2256 71.2808 64.4825C71.5557 64.7394 71.9287 64.8838 72.3173 64.8838ZM73.7831 58.0327H78.1805V62.1433H73.7831V58.0327Z" fill="white"/>
<path d="M98.701 55.2937H92.8379C92.0284 55.2937 91.3721 55.9072 91.3721 56.6639V63.515C91.3721 63.8784 91.5265 64.2271 91.8013 64.484C92.0762 64.7409 92.4492 64.8853 92.8379 64.8853H98.701C99.0897 64.8853 99.4627 64.7409 99.7375 64.484C100.012 64.2271 100.167 63.8784 100.167 63.515V56.6639C100.167 56.3006 100.012 55.9519 99.7375 55.695C99.4627 55.4381 99.0897 55.2937 98.701 55.2937ZM97.2352 62.1448H94.3036V58.0341H97.2352V62.1448Z" fill="white"/>
<path d="M98.701 67.6243H92.8379C92.0284 67.6243 91.3721 68.2378 91.3721 68.9945V75.8456C91.3721 76.209 91.5265 76.5576 91.8013 76.8145C92.0762 77.0715 92.4492 77.2158 92.8379 77.2158H98.701C99.0897 77.2158 99.4627 77.0715 99.7375 76.8145C100.012 76.5576 100.167 76.209 100.167 75.8456V68.9945C100.167 68.6311 100.012 68.2825 99.7375 68.0255C99.4627 67.7686 99.0897 67.6243 98.701 67.6243ZM97.2352 74.4754H94.3036V70.3647H97.2352V74.4754Z" fill="white"/>
<path d="M111.892 82.6982H106.029V45.7022C106.029 45.3389 105.874 44.9902 105.599 44.7333C105.325 44.4764 104.952 44.332 104.563 44.332H88.4393V33.3702C88.4393 33.0069 88.2849 32.6582 88.01 32.4013C87.7352 32.1444 87.3622 32 86.9735 32H51.7947C50.9853 32 50.3289 32.6135 50.3289 33.3702V82.6982H44.4658C43.6563 82.6982 43 83.3118 43 84.0685C43 84.8251 43.6563 85.4387 44.4658 85.4387H111.892C112.701 85.4387 113.358 84.8251 113.358 84.0685C113.358 83.3118 112.701 82.6982 111.892 82.6982ZM103.097 47.0724V49.8129H88.4393V47.0724H103.097ZM53.2605 34.7404H85.5077V37.4809H53.2605V34.7404ZM53.2605 40.2213H85.5077V82.6982H76.713V73.1067C76.713 72.0166 76.2497 70.9705 75.4252 70.1999C74.6007 69.4293 73.4817 68.9961 72.3158 68.9961H64.9868C63.8208 68.9961 62.7017 69.4292 61.8774 70.1999C61.053 70.9707 60.5896 72.0168 60.5896 73.1067V82.6982H53.2607L53.2605 40.2213ZM63.521 82.6982V73.1067C63.521 72.35 64.1773 71.7365 64.9868 71.7365H72.3157C72.7044 71.7365 73.0774 71.8808 73.3522 72.1377C73.627 72.3946 73.7815 72.7433 73.7815 73.1067V82.6982H63.521ZM88.4393 82.6982V52.5533H103.097V82.6982H88.4393Z" fill="white"/>
<path d="M43.2273 102.182C43.2273 103.409 43.0057 104.47 42.5625 105.364C42.1193 106.258 41.5114 106.947 40.7386 107.432C39.9659 107.917 39.0833 108.159 38.0909 108.159C37.0985 108.159 36.2159 107.917 35.4432 107.432C34.6705 106.947 34.0625 106.258 33.6193 105.364C33.1761 104.47 32.9545 103.409 32.9545 102.182C32.9545 100.955 33.1761 99.8939 33.6193 99C34.0625 98.1061 34.6705 97.4167 35.4432 96.9318C36.2159 96.447 37.0985 96.2045 38.0909 96.2045C39.0833 96.2045 39.9659 96.447 40.7386 96.9318C41.5114 97.4167 42.1193 98.1061 42.5625 99C43.0057 99.8939 43.2273 100.955 43.2273 102.182ZM41.8636 102.182C41.8636 101.174 41.6951 100.324 41.358 99.6307C41.0246 98.9375 40.572 98.4129 40 98.0568C39.4318 97.7008 38.7955 97.5227 38.0909 97.5227C37.3864 97.5227 36.7481 97.7008 36.1761 98.0568C35.608 98.4129 35.1553 98.9375 34.8182 99.6307C34.4848 100.324 34.3182 101.174 34.3182 102.182C34.3182 103.189 34.4848 104.04 34.8182 104.733C35.1553 105.426 35.608 105.951 36.1761 106.307C36.7481 106.663 37.3864 106.841 38.0909 106.841C38.7955 106.841 39.4318 106.663 40 106.307C40.572 105.951 41.0246 105.426 41.358 104.733C41.6951 104.04 41.8636 103.189 41.8636 102.182ZM45.4148 108V99.2727H46.7102V100.591H46.8011C46.9602 100.159 47.2481 99.8087 47.6648 99.5398C48.0814 99.2708 48.5511 99.1364 49.0739 99.1364C49.1723 99.1364 49.2955 99.1383 49.4432 99.142C49.5909 99.1458 49.7027 99.1515 49.7784 99.1591V100.523C49.733 100.511 49.6288 100.494 49.4659 100.472C49.3068 100.445 49.1383 100.432 48.9602 100.432C48.536 100.432 48.1572 100.521 47.8239 100.699C47.4943 100.873 47.233 101.116 47.0398 101.426C46.8504 101.733 46.7557 102.083 46.7557 102.477V108H45.4148ZM54.625 111.455C53.9773 111.455 53.4205 111.371 52.9545 111.205C52.4886 111.042 52.1004 110.826 51.7898 110.557C51.483 110.292 51.2386 110.008 51.0568 109.705L52.125 108.955C52.2462 109.114 52.3996 109.295 52.5852 109.5C52.7708 109.708 53.0246 109.888 53.3466 110.04C53.6723 110.195 54.0985 110.273 54.625 110.273C55.3295 110.273 55.911 110.102 56.3693 109.761C56.8277 109.42 57.0568 108.886 57.0568 108.159V106.386H56.9432C56.8447 106.545 56.7045 106.742 56.5227 106.977C56.3447 107.208 56.0871 107.415 55.75 107.597C55.4167 107.775 54.9659 107.864 54.3977 107.864C53.6932 107.864 53.0606 107.697 52.5 107.364C51.9432 107.03 51.5019 106.545 51.1761 105.909C50.8542 105.273 50.6932 104.5 50.6932 103.591C50.6932 102.697 50.8504 101.919 51.1648 101.256C51.4792 100.589 51.9167 100.074 52.4773 99.7102C53.0379 99.3428 53.6856 99.1591 54.4205 99.1591C54.9886 99.1591 55.4394 99.2538 55.7727 99.4432C56.1098 99.6288 56.3674 99.8409 56.5455 100.08C56.7273 100.314 56.8674 100.508 56.9659 100.659H57.1023V99.2727H58.3977V108.25C58.3977 109 58.2273 109.61 57.8864 110.08C57.5492 110.553 57.0947 110.9 56.5227 111.119C55.9545 111.343 55.322 111.455 54.625 111.455ZM54.5795 106.659C55.1174 106.659 55.572 106.536 55.9432 106.29C56.3144 106.044 56.5966 105.689 56.7898 105.227C56.983 104.765 57.0795 104.212 57.0795 103.568C57.0795 102.939 56.9848 102.384 56.7955 101.903C56.6061 101.422 56.3258 101.045 55.9545 100.773C55.5833 100.5 55.125 100.364 54.5795 100.364C54.0114 100.364 53.5379 100.508 53.1591 100.795C52.7841 101.083 52.5019 101.47 52.3125 101.955C52.1269 102.439 52.0341 102.977 52.0341 103.568C52.0341 104.174 52.1288 104.71 52.3182 105.176C52.5114 105.638 52.7955 106.002 53.1705 106.267C53.5492 106.528 54.0189 106.659 54.5795 106.659ZM63.4205 108.205C62.8674 108.205 62.3655 108.1 61.9148 107.892C61.464 107.68 61.1061 107.375 60.8409 106.977C60.5758 106.576 60.4432 106.091 60.4432 105.523C60.4432 105.023 60.5417 104.617 60.7386 104.307C60.9356 103.992 61.1989 103.746 61.5284 103.568C61.858 103.39 62.2216 103.258 62.6193 103.17C63.0208 103.08 63.4242 103.008 63.8295 102.955C64.3598 102.886 64.7898 102.835 65.1193 102.801C65.4527 102.763 65.6951 102.701 65.8466 102.614C66.0019 102.527 66.0795 102.375 66.0795 102.159V102.114C66.0795 101.553 65.9261 101.117 65.6193 100.807C65.3163 100.496 64.8561 100.341 64.2386 100.341C63.5985 100.341 63.0966 100.481 62.733 100.761C62.3693 101.042 62.1136 101.341 61.9659 101.659L60.6932 101.205C60.9205 100.674 61.2235 100.261 61.6023 99.9659C61.9848 99.6667 62.4015 99.4583 62.8523 99.3409C63.3068 99.2197 63.7538 99.1591 64.1932 99.1591C64.4735 99.1591 64.7955 99.1932 65.1591 99.2614C65.5265 99.3258 65.8807 99.4602 66.2216 99.6648C66.5663 99.8693 66.8523 100.178 67.0795 100.591C67.3068 101.004 67.4205 101.557 67.4205 102.25V108H66.0795V106.818H66.0114C65.9205 107.008 65.7689 107.21 65.5568 107.426C65.3447 107.642 65.0625 107.826 64.7102 107.977C64.358 108.129 63.928 108.205 63.4205 108.205ZM63.625 107C64.1553 107 64.6023 106.896 64.9659 106.688C65.3333 106.479 65.6098 106.21 65.7955 105.881C65.9848 105.551 66.0795 105.205 66.0795 104.841V103.614C66.0227 103.682 65.8977 103.744 65.7045 103.801C65.5152 103.854 65.2955 103.902 65.0455 103.943C64.7992 103.981 64.5587 104.015 64.3239 104.045C64.0928 104.072 63.9053 104.095 63.7614 104.114C63.4129 104.159 63.0871 104.233 62.7841 104.335C62.4848 104.434 62.2424 104.583 62.0568 104.784C61.875 104.981 61.7841 105.25 61.7841 105.591C61.7841 106.057 61.9564 106.409 62.3011 106.648C62.6496 106.883 63.0909 107 63.625 107ZM71.2088 102.75V108H69.8679V99.2727H71.1634V100.636H71.277C71.4815 100.193 71.7921 99.8371 72.2088 99.5682C72.6255 99.2955 73.1634 99.1591 73.8224 99.1591C74.4134 99.1591 74.9304 99.2803 75.3736 99.5227C75.8168 99.7614 76.1615 100.125 76.4077 100.614C76.6539 101.098 76.777 101.712 76.777 102.455V108H75.4361V102.545C75.4361 101.86 75.258 101.326 74.902 100.943C74.5459 100.557 74.0573 100.364 73.4361 100.364C73.008 100.364 72.6255 100.456 72.2884 100.642C71.955 100.828 71.6918 101.098 71.4986 101.455C71.3054 101.811 71.2088 102.242 71.2088 102.75ZM79.2273 108V99.2727H80.5682V108H79.2273ZM79.9091 97.8182C79.6477 97.8182 79.4223 97.7292 79.233 97.5511C79.0473 97.3731 78.9545 97.1591 78.9545 96.9091C78.9545 96.6591 79.0473 96.4451 79.233 96.267C79.4223 96.089 79.6477 96 79.9091 96C80.1705 96 80.3939 96.089 80.5795 96.267C80.7689 96.4451 80.8636 96.6591 80.8636 96.9091C80.8636 97.1591 80.7689 97.3731 80.5795 97.5511C80.3939 97.7292 80.1705 97.8182 79.9091 97.8182ZM89.206 101.227L88.0014 101.568C87.9257 101.367 87.8139 101.172 87.6662 100.983C87.5223 100.79 87.3253 100.631 87.0753 100.506C86.8253 100.381 86.5052 100.318 86.1151 100.318C85.581 100.318 85.1359 100.441 84.7798 100.688C84.4276 100.93 84.2514 101.239 84.2514 101.614C84.2514 101.947 84.3726 102.21 84.6151 102.403C84.8575 102.597 85.2363 102.758 85.7514 102.886L87.0469 103.205C87.8272 103.394 88.4086 103.684 88.7912 104.074C89.1738 104.46 89.3651 104.958 89.3651 105.568C89.3651 106.068 89.2211 106.515 88.9332 106.909C88.6491 107.303 88.2514 107.614 87.7401 107.841C87.2287 108.068 86.634 108.182 85.956 108.182C85.0658 108.182 84.3291 107.989 83.7457 107.602C83.1624 107.216 82.7931 106.652 82.6378 105.909L83.9105 105.591C84.0317 106.061 84.2609 106.413 84.598 106.648C84.9389 106.883 85.384 107 85.9332 107C86.5582 107 87.0545 106.867 87.4219 106.602C87.7931 106.333 87.9787 106.011 87.9787 105.636C87.9787 105.333 87.8726 105.08 87.6605 104.875C87.4484 104.667 87.1226 104.511 86.6832 104.409L85.2287 104.068C84.4295 103.879 83.8423 103.585 83.4673 103.188C83.0961 102.786 82.9105 102.284 82.9105 101.682C82.9105 101.189 83.0488 100.754 83.3253 100.375C83.6056 99.9962 83.9863 99.6989 84.4673 99.483C84.9522 99.267 85.5014 99.1591 86.1151 99.1591C86.9787 99.1591 87.6567 99.3485 88.1491 99.7273C88.6454 100.106 88.9976 100.606 89.206 101.227ZM93.9517 108.205C93.3987 108.205 92.8968 108.1 92.446 107.892C91.9953 107.68 91.6373 107.375 91.3722 106.977C91.107 106.576 90.9744 106.091 90.9744 105.523C90.9744 105.023 91.0729 104.617 91.2699 104.307C91.4669 103.992 91.7301 103.746 92.0597 103.568C92.3892 103.39 92.7528 103.258 93.1506 103.17C93.5521 103.08 93.9555 103.008 94.3608 102.955C94.8911 102.886 95.321 102.835 95.6506 102.801C95.9839 102.763 96.2263 102.701 96.3778 102.614C96.5331 102.527 96.6108 102.375 96.6108 102.159V102.114C96.6108 101.553 96.4574 101.117 96.1506 100.807C95.8475 100.496 95.3873 100.341 94.7699 100.341C94.1297 100.341 93.6278 100.481 93.2642 100.761C92.9006 101.042 92.6449 101.341 92.4972 101.659L91.2244 101.205C91.4517 100.674 91.7547 100.261 92.1335 99.9659C92.5161 99.6667 92.9328 99.4583 93.3835 99.3409C93.8381 99.2197 94.285 99.1591 94.7244 99.1591C95.0047 99.1591 95.3267 99.1932 95.6903 99.2614C96.0578 99.3258 96.4119 99.4602 96.7528 99.6648C97.0975 99.8693 97.3835 100.178 97.6108 100.591C97.8381 101.004 97.9517 101.557 97.9517 102.25V108H96.6108V106.818H96.5426C96.4517 107.008 96.3002 107.21 96.0881 107.426C95.8759 107.642 95.5938 107.826 95.2415 107.977C94.8892 108.129 94.4593 108.205 93.9517 108.205ZM94.1562 107C94.6866 107 95.1335 106.896 95.4972 106.688C95.8646 106.479 96.1411 106.21 96.3267 105.881C96.5161 105.551 96.6108 105.205 96.6108 104.841V103.614C96.554 103.682 96.429 103.744 96.2358 103.801C96.0464 103.854 95.8267 103.902 95.5767 103.943C95.3305 103.981 95.09 104.015 94.8551 104.045C94.6241 104.072 94.4366 104.095 94.2926 104.114C93.9441 104.159 93.6184 104.233 93.3153 104.335C93.0161 104.434 92.7737 104.583 92.5881 104.784C92.4063 104.981 92.3153 105.25 92.3153 105.591C92.3153 106.057 92.4877 106.409 92.8324 106.648C93.1809 106.883 93.6222 107 94.1562 107ZM104.195 99.2727V100.409H99.6719V99.2727H104.195ZM100.99 97.1818H102.331V105.5C102.331 105.879 102.386 106.163 102.496 106.352C102.609 106.538 102.753 106.663 102.928 106.727C103.106 106.788 103.293 106.818 103.49 106.818C103.638 106.818 103.759 106.811 103.854 106.795C103.948 106.777 104.024 106.761 104.081 106.75L104.354 107.955C104.263 107.989 104.136 108.023 103.973 108.057C103.81 108.095 103.604 108.114 103.354 108.114C102.975 108.114 102.604 108.032 102.24 107.869C101.88 107.706 101.581 107.458 101.342 107.125C101.107 106.792 100.99 106.371 100.99 105.864V97.1818ZM106.212 108V99.2727H107.553V108H106.212ZM106.893 97.8182C106.632 97.8182 106.407 97.7292 106.217 97.5511C106.032 97.3731 105.939 97.1591 105.939 96.9091C105.939 96.6591 106.032 96.4451 106.217 96.267C106.407 96.089 106.632 96 106.893 96C107.155 96 107.378 96.089 107.564 96.267C107.753 96.4451 107.848 96.6591 107.848 96.9091C107.848 97.1591 107.753 97.3731 107.564 97.5511C107.378 97.7292 107.155 97.8182 106.893 97.8182ZM113.668 108.182C112.827 108.182 112.101 107.996 111.491 107.625C110.885 107.25 110.418 106.727 110.088 106.057C109.762 105.383 109.599 104.598 109.599 103.705C109.599 102.811 109.762 102.023 110.088 101.341C110.418 100.655 110.876 100.121 111.463 99.7386C112.054 99.3523 112.743 99.1591 113.531 99.1591C113.986 99.1591 114.435 99.2348 114.878 99.3864C115.321 99.5379 115.724 99.7841 116.088 100.125C116.452 100.462 116.741 100.909 116.957 101.466C117.173 102.023 117.281 102.708 117.281 103.523V104.091H110.554V102.932H115.918C115.918 102.439 115.819 102 115.622 101.614C115.429 101.227 115.152 100.922 114.793 100.699C114.437 100.475 114.016 100.364 113.531 100.364C112.997 100.364 112.535 100.496 112.145 100.761C111.759 101.023 111.461 101.364 111.253 101.784C111.045 102.205 110.94 102.655 110.94 103.136V103.909C110.94 104.568 111.054 105.127 111.281 105.585C111.512 106.04 111.832 106.386 112.241 106.625C112.651 106.86 113.126 106.977 113.668 106.977C114.02 106.977 114.338 106.928 114.622 106.83C114.91 106.727 115.158 106.576 115.366 106.375C115.575 106.17 115.736 105.917 115.849 105.614L117.145 105.977C117.009 106.417 116.779 106.803 116.457 107.136C116.135 107.466 115.738 107.723 115.264 107.909C114.791 108.091 114.259 108.182 113.668 108.182Z" fill="white"/>
<defs>
<radialGradient id="paint0_radial_127_1646" cx="0" cy="0" r="1" gradientUnits="userSpaceOnUse" gradientTransform="translate(330.246 -89.7529) rotate(180) scale(799.834)">
<stop stop-color="#FFFC9F"/>
<stop offset="0.4536" stop-color="#FFB048"/>
<stop offset="1" stop-color="#E20081"/>
</radialGradient>
</defs>
</svg>
