<svg width="150" height="150" viewBox="0 0 150 150" fill="none" xmlns="http://www.w3.org/2000/svg">
<path d="M75 150C116.421 150 150 116.421 150 75C150 33.5786 116.421 0 75 0C33.5787 0 0 33.5786 0 75C0 116.421 33.5787 150 75 150Z" fill="url(#paint0_radial_127_1657)"/>
<path d="M88.4964 62.5139C82.4925 61.9384 80.4791 60.2141 80.612 55.5594C83.9292 53.2003 85.5331 48.9197 85.808 45.714C86.0316 43.0982 86.5558 36.9733 83.084 33.1271C81.2102 31.0519 78.4932 30 75.0088 30C71.5243 30 68.8069 31.0519 66.9335 33.128C63.4605 36.9744 63.985 43.0981 64.2086 45.7138C64.4831 48.9194 66.0862 53.2005 69.4042 55.5597C69.5374 60.2139 67.5245 61.9386 61.5206 62.5141C58.2048 62.8317 55.8223 63.9566 54.2373 65.9529C52.253 68.452 51.5981 72.2849 52.2349 77.6709L52.2345 77.6705C52.2761 78.0509 52.4652 78.3988 52.7603 78.6366C53.0558 78.8744 53.4324 78.9828 53.8065 78.9371C54.1806 78.8915 54.5214 78.6959 54.753 78.3937C54.9842 78.0918 55.0872 77.708 55.0388 77.3285C54.4979 72.7507 54.9548 69.618 56.436 67.7529C57.5179 66.3902 59.2676 65.6106 61.7854 65.3691C66.9831 64.8717 71.7487 63.4326 72.1875 56.8966C74.0298 57.4384 75.986 57.4384 77.8282 56.8966C78.2674 63.4322 83.033 64.8714 88.2312 65.3691C92.8963 65.8165 95.6284 67.8755 94.8335 76.7472C94.7999 77.1263 94.9155 77.5033 95.1555 77.7957C95.3951 78.0877 95.7393 78.2713 96.1126 78.3055C96.1559 78.3097 96.1992 78.3114 96.242 78.3114V78.3119C96.9717 78.3106 97.5807 77.7449 97.6472 77.0072C98.4832 67.6697 95.6608 63.1995 88.4964 62.5132L88.4964 62.5139ZM67.0222 45.4658C66.8306 43.2267 66.3821 37.9837 69.0146 35.0667C70.331 33.6083 72.3478 32.869 75.0079 32.869C77.6686 32.869 79.6848 33.6079 81.0004 35.0662C83.6337 37.9829 83.1848 43.2262 82.9935 45.4654C82.7791 47.9602 80.9276 54.4352 75.0078 54.4352C69.0868 54.4352 67.2357 47.9606 67.0221 45.4658H67.0222ZM63.6076 74.6035L62.8859 77.8194L62.8855 77.819C62.8048 78.1926 62.5807 78.5183 62.2625 78.7232C61.9448 78.9281 61.5589 78.9956 61.192 78.9106C60.8246 78.8257 60.506 78.5951 60.3072 78.2702C60.108 77.9454 60.0449 77.5535 60.1315 77.1812L60.8532 73.9652H60.8536C60.9339 73.5917 61.1584 73.2664 61.4765 73.061C61.7943 72.8561 62.1797 72.7887 62.5471 72.8741C62.9145 72.959 63.2326 73.1895 63.4319 73.514C63.6311 73.8389 63.6942 74.2312 63.6071 74.6031L63.6076 74.6035ZM89.8851 77.1816L89.8846 77.1812C90.0574 77.9539 89.5812 78.7224 88.8208 78.8987C88.7174 78.923 88.6119 78.935 88.506 78.935C87.8474 78.9341 87.2765 78.4713 87.1299 77.819L86.4082 74.6031C86.2346 73.8308 86.7108 73.0615 87.4712 72.8856C88.232 72.7093 88.9893 73.193 89.1626 73.9652L89.8851 77.1816Z" fill="white"/>
<path d="M39.4091 105V93.3636H43.3409C44.2538 93.3636 45 93.5284 45.5795 93.858C46.1629 94.1837 46.5947 94.625 46.875 95.1818C47.1553 95.7386 47.2955 96.3598 47.2955 97.0455C47.2955 97.7311 47.1553 98.3542 46.875 98.9148C46.5985 99.4754 46.1705 99.9223 45.5909 100.256C45.0114 100.585 44.2689 100.75 43.3636 100.75H40.5455V99.5H43.3182C43.9432 99.5 44.4451 99.392 44.8239 99.1761C45.2027 98.9602 45.4773 98.6686 45.6477 98.3011C45.822 97.9299 45.9091 97.5114 45.9091 97.0455C45.9091 96.5795 45.822 96.1629 45.6477 95.7955C45.4773 95.428 45.2008 95.1402 44.8182 94.9318C44.4356 94.7197 43.928 94.6136 43.2955 94.6136H40.8182V105H39.4091ZM52.9489 105.182C52.108 105.182 51.3826 104.996 50.7727 104.625C50.1667 104.25 49.6989 103.727 49.3693 103.057C49.0436 102.383 48.8807 101.598 48.8807 100.705C48.8807 99.8106 49.0436 99.0227 49.3693 98.3409C49.6989 97.6553 50.1572 97.1212 50.7443 96.7386C51.3352 96.3523 52.0246 96.1591 52.8125 96.1591C53.267 96.1591 53.7159 96.2348 54.1591 96.3864C54.6023 96.5379 55.0057 96.7841 55.3693 97.125C55.733 97.4621 56.0227 97.9091 56.2386 98.4659C56.4545 99.0227 56.5625 99.7083 56.5625 100.523V101.091H49.8352V99.9318H55.1989C55.1989 99.4394 55.1004 99 54.9034 98.6136C54.7102 98.2273 54.4337 97.9223 54.0739 97.6989C53.7178 97.4754 53.2973 97.3636 52.8125 97.3636C52.2784 97.3636 51.8163 97.4962 51.4261 97.7614C51.0398 98.0227 50.7424 98.3636 50.5341 98.7841C50.3258 99.2045 50.2216 99.6553 50.2216 100.136V100.909C50.2216 101.568 50.3352 102.127 50.5625 102.585C50.7936 103.04 51.1136 103.386 51.5227 103.625C51.9318 103.86 52.4072 103.977 52.9489 103.977C53.3011 103.977 53.6193 103.928 53.9034 103.83C54.1913 103.727 54.4394 103.576 54.6477 103.375C54.8561 103.17 55.017 102.917 55.1307 102.614L56.4261 102.977C56.2898 103.417 56.0606 103.803 55.7386 104.136C55.4167 104.466 55.0189 104.723 54.5455 104.909C54.072 105.091 53.5398 105.182 52.9489 105.182ZM58.6023 105V96.2727H59.8977V97.5909H59.9886C60.1477 97.1591 60.4356 96.8087 60.8523 96.5398C61.2689 96.2708 61.7386 96.1364 62.2614 96.1364C62.3598 96.1364 62.483 96.1383 62.6307 96.142C62.7784 96.1458 62.8902 96.1515 62.9659 96.1591V97.5227C62.9205 97.5114 62.8163 97.4943 62.6534 97.4716C62.4943 97.4451 62.3258 97.4318 62.1477 97.4318C61.7235 97.4318 61.3447 97.5208 61.0114 97.6989C60.6818 97.8731 60.4205 98.1155 60.2273 98.4261C60.0379 98.733 59.9432 99.0833 59.9432 99.4773V105H58.6023ZM70.7372 98.2273L69.5327 98.5682C69.4569 98.3674 69.3452 98.1723 69.1974 97.983C69.0535 97.7898 68.8565 97.6307 68.6065 97.5057C68.3565 97.3807 68.0365 97.3182 67.6463 97.3182C67.1122 97.3182 66.6671 97.4413 66.3111 97.6875C65.9588 97.9299 65.7827 98.2386 65.7827 98.6136C65.7827 98.947 65.9039 99.2102 66.1463 99.4034C66.3887 99.5966 66.7675 99.7576 67.2827 99.8864L68.5781 100.205C69.3584 100.394 69.9399 100.684 70.3224 101.074C70.705 101.46 70.8963 101.958 70.8963 102.568C70.8963 103.068 70.7524 103.515 70.4645 103.909C70.1804 104.303 69.7827 104.614 69.2713 104.841C68.7599 105.068 68.1652 105.182 67.4872 105.182C66.5971 105.182 65.8603 104.989 65.277 104.602C64.6937 104.216 64.3243 103.652 64.169 102.909L65.4418 102.591C65.563 103.061 65.7921 103.413 66.1293 103.648C66.4702 103.883 66.9152 104 67.4645 104C68.0895 104 68.5857 103.867 68.9531 103.602C69.3243 103.333 69.5099 103.011 69.5099 102.636C69.5099 102.333 69.4039 102.08 69.1918 101.875C68.9796 101.667 68.6539 101.511 68.2145 101.409L66.7599 101.068C65.9607 100.879 65.3736 100.585 64.9986 100.188C64.6274 99.786 64.4418 99.2841 64.4418 98.6818C64.4418 98.1894 64.58 97.7538 64.8565 97.375C65.1368 96.9962 65.5175 96.6989 65.9986 96.483C66.4834 96.267 67.0327 96.1591 67.6463 96.1591C68.5099 96.1591 69.188 96.3485 69.6804 96.7273C70.1766 97.1061 70.5289 97.6061 70.7372 98.2273ZM76.4602 105.182C75.6723 105.182 74.9811 104.994 74.3864 104.619C73.7955 104.244 73.3333 103.72 73 103.045C72.6705 102.371 72.5057 101.583 72.5057 100.682C72.5057 99.7727 72.6705 98.9792 73 98.3011C73.3333 97.6231 73.7955 97.0966 74.3864 96.7216C74.9811 96.3466 75.6723 96.1591 76.4602 96.1591C77.2481 96.1591 77.9375 96.3466 78.5284 96.7216C79.1231 97.0966 79.5852 97.6231 79.9148 98.3011C80.2481 98.9792 80.4148 99.7727 80.4148 100.682C80.4148 101.583 80.2481 102.371 79.9148 103.045C79.5852 103.72 79.1231 104.244 78.5284 104.619C77.9375 104.994 77.2481 105.182 76.4602 105.182ZM76.4602 103.977C77.0587 103.977 77.5511 103.824 77.9375 103.517C78.3239 103.21 78.6098 102.807 78.7955 102.307C78.9811 101.807 79.0739 101.265 79.0739 100.682C79.0739 100.098 78.9811 99.5549 78.7955 99.0511C78.6098 98.5473 78.3239 98.1402 77.9375 97.8295C77.5511 97.5189 77.0587 97.3636 76.4602 97.3636C75.8617 97.3636 75.3693 97.5189 74.983 97.8295C74.5966 98.1402 74.3106 98.5473 74.125 99.0511C73.9394 99.5549 73.8466 100.098 73.8466 100.682C73.8466 101.265 73.9394 101.807 74.125 102.307C74.3106 102.807 74.5966 103.21 74.983 103.517C75.3693 103.824 75.8617 103.977 76.4602 103.977ZM83.8026 99.75V105H82.4616V96.2727H83.7571V97.6364H83.8707C84.0753 97.1932 84.3859 96.8371 84.8026 96.5682C85.2192 96.2955 85.7571 96.1591 86.4162 96.1591C87.0071 96.1591 87.5241 96.2803 87.9673 96.5227C88.4105 96.7614 88.7552 97.125 89.0014 97.6136C89.2476 98.0985 89.3707 98.7121 89.3707 99.4545V105H88.0298V99.5455C88.0298 98.8598 87.8518 98.3258 87.4957 97.9432C87.1397 97.5568 86.651 97.3636 86.0298 97.3636C85.6018 97.3636 85.2192 97.4564 84.8821 97.642C84.5488 97.8277 84.2855 98.0985 84.0923 98.4545C83.8991 98.8106 83.8026 99.2424 83.8026 99.75ZM95.4801 105.182C94.6392 105.182 93.9138 104.996 93.304 104.625C92.6979 104.25 92.2301 103.727 91.9006 103.057C91.5748 102.383 91.4119 101.598 91.4119 100.705C91.4119 99.8106 91.5748 99.0227 91.9006 98.3409C92.2301 97.6553 92.6884 97.1212 93.2756 96.7386C93.8665 96.3523 94.5559 96.1591 95.3438 96.1591C95.7983 96.1591 96.2472 96.2348 96.6903 96.3864C97.1335 96.5379 97.5369 96.7841 97.9006 97.125C98.2642 97.4621 98.554 97.9091 98.7699 98.4659C98.9858 99.0227 99.0938 99.7083 99.0938 100.523V101.091H92.3665V99.9318H97.7301C97.7301 99.4394 97.6316 99 97.4347 98.6136C97.2415 98.2273 96.965 97.9223 96.6051 97.6989C96.2491 97.4754 95.8286 97.3636 95.3438 97.3636C94.8097 97.3636 94.3475 97.4962 93.9574 97.7614C93.571 98.0227 93.2737 98.3636 93.0653 98.7841C92.857 99.2045 92.7528 99.6553 92.7528 100.136V100.909C92.7528 101.568 92.8665 102.127 93.0938 102.585C93.3248 103.04 93.6449 103.386 94.054 103.625C94.4631 103.86 94.9384 103.977 95.4801 103.977C95.8324 103.977 96.1506 103.928 96.4347 103.83C96.7225 103.727 96.9706 103.576 97.179 103.375C97.3873 103.17 97.5483 102.917 97.6619 102.614L98.9574 102.977C98.821 103.417 98.5919 103.803 98.2699 104.136C97.9479 104.466 97.5502 104.723 97.0767 104.909C96.6032 105.091 96.071 105.182 95.4801 105.182ZM102.474 99.75V105H101.134V96.2727H102.429V97.6364H102.543C102.747 97.1932 103.058 96.8371 103.474 96.5682C103.891 96.2955 104.429 96.1591 105.088 96.1591C105.679 96.1591 106.196 96.2803 106.639 96.5227C107.082 96.7614 107.427 97.125 107.673 97.6136C107.92 98.0985 108.043 98.7121 108.043 99.4545V105H106.702V99.5455C106.702 98.8598 106.524 98.3258 106.168 97.9432C105.812 97.5568 105.323 97.3636 104.702 97.3636C104.274 97.3636 103.891 97.4564 103.554 97.642C103.221 97.8277 102.957 98.0985 102.764 98.4545C102.571 98.8106 102.474 99.2424 102.474 99.75Z" fill="white"/>
<defs>
<radialGradient id="paint0_radial_127_1657" cx="0" cy="0" r="1" gradientUnits="userSpaceOnUse" gradientTransform="translate(328.065 -89.164) rotate(180) scale(794.583)">
<stop stop-color="#FFFC9F"/>
<stop offset="0.4536" stop-color="#FFB048"/>
<stop offset="1" stop-color="#E20081"/>
</radialGradient>
</defs>
</svg>
