<svg width="95" height="95" viewBox="0 0 95 95" fill="none" xmlns="http://www.w3.org/2000/svg">
<path d="M47.4996 95C73.7331 95 94.9996 73.7335 94.9996 47.5C94.9996 21.2665 73.7331 0 47.4996 0C21.266 0 -0.000427246 21.2665 -0.000427246 47.5C-0.000427246 73.7335 21.266 95 47.4996 95Z" fill="url(#paint0_radial_191_1774)"/>
<path d="M26.8859 65.0002H25.4087L29.6814 53.3639H31.1359L35.4087 65.0002H33.9314L30.4541 55.2048H30.3632L26.8859 65.0002ZM27.4314 60.4548H33.3859V61.7048H27.4314V60.4548ZM40.9257 56.273V57.4093H36.2212V56.273H40.9257ZM37.6303 65.0002V55.0684C37.6303 54.5684 37.7477 54.1518 37.9825 53.8184C38.2174 53.4851 38.5223 53.2351 38.8973 53.0684C39.2723 52.9018 39.6681 52.8184 40.0848 52.8184C40.4143 52.8184 40.6833 52.8449 40.8916 52.898C41.1 52.951 41.2553 53.0002 41.3575 53.0457L40.9712 54.2048C40.903 54.1821 40.8083 54.1537 40.6871 54.1196C40.5696 54.0855 40.4143 54.0684 40.2212 54.0684C39.778 54.0684 39.4579 54.1802 39.2609 54.4037C39.0678 54.6271 38.9712 54.9548 38.9712 55.3866V65.0002H37.6303ZM49.9413 56.273L46.7141 65.0002H45.3504L42.1232 56.273H43.5777L45.9868 63.2275H46.0777L48.4868 56.273H49.9413ZM54.0138 65.2048C53.4607 65.2048 52.9589 65.1006 52.5081 64.8923C52.0573 64.6802 51.6994 64.3752 51.4342 63.9775C51.1691 63.576 51.0365 63.0912 51.0365 62.523C51.0365 62.023 51.135 61.6177 51.332 61.3071C51.5289 60.9927 51.7922 60.7465 52.1217 60.5684C52.4513 60.3904 52.8149 60.2578 53.2126 60.1707C53.6142 60.0798 54.0176 60.0078 54.4229 59.9548C54.9532 59.8866 55.3831 59.8355 55.7126 59.8014C56.046 59.7635 56.2884 59.701 56.4399 59.6139C56.5952 59.5268 56.6729 59.3752 56.6729 59.1593V59.1139C56.6729 58.5533 56.5195 58.1177 56.2126 57.8071C55.9096 57.4965 55.4494 57.3412 54.832 57.3412C54.1918 57.3412 53.6899 57.4813 53.3263 57.7616C52.9626 58.0419 52.707 58.3412 52.5592 58.6593L51.2865 58.2048C51.5138 57.6745 51.8168 57.2616 52.1956 56.9662C52.5782 56.6669 52.9948 56.4586 53.4456 56.3412C53.9001 56.2199 54.3471 56.1593 54.7865 56.1593C55.0668 56.1593 55.3888 56.1934 55.7524 56.2616C56.1198 56.326 56.474 56.4605 56.8149 56.665C57.1596 56.8696 57.4456 57.1783 57.6729 57.5912C57.9001 58.004 58.0138 58.5571 58.0138 59.2502V65.0002H56.6729V63.8184H56.6047C56.5138 64.0078 56.3623 64.2105 56.1501 64.4264C55.938 64.6423 55.6558 64.826 55.3036 64.9775C54.9513 65.129 54.5214 65.2048 54.0138 65.2048ZM54.2183 64.0002C54.7486 64.0002 55.1956 63.8961 55.5592 63.6877C55.9267 63.4794 56.2032 63.2105 56.3888 62.8809C56.5782 62.5514 56.6729 62.2048 56.6729 61.8412V60.6139C56.6161 60.6821 56.4911 60.7446 56.2979 60.8014C56.1085 60.8544 55.8888 60.9018 55.6388 60.9434C55.3926 60.9813 55.152 61.0154 54.9172 61.0457C54.6861 61.0722 54.4986 61.0949 54.3547 61.1139C54.0062 61.1593 53.6804 61.2332 53.3774 61.3355C53.0782 61.434 52.8357 61.5836 52.6501 61.7843C52.4683 61.9813 52.3774 62.2502 52.3774 62.5912C52.3774 63.0571 52.5498 63.4093 52.8945 63.648C53.2429 63.8828 53.6842 64.0002 54.2183 64.0002ZM61.8021 53.3639V65.0002H60.4612V53.3639H61.8021Z" fill="white"/>
<path d="M35.0776 46.9998C34.6708 47.0003 34.3347 46.7179 34.3134 46.3574L32.9461 23.6192C32.9332 23.4282 33.0227 23.2429 33.1874 23.1194C33.3139 22.979 33.5077 22.8998 33.7103 22.9053H54.3014C54.5135 22.908 54.716 22.985 54.8644 23.1194C54.9893 23.2631 55.0597 23.4379 55.0656 23.6192L53.5773 46.3931C53.5361 46.7397 53.2059 47.0019 52.8134 46.9999L35.0776 46.9998ZM34.5146 24.2258L35.7612 45.679H52.0893L53.4971 24.2258H34.5146Z" fill="white"/>
<path d="M59.1272 25.5465C58.3271 25.5465 57.5601 25.2644 56.9943 24.7624C56.4288 24.2602 56.1109 23.5794 56.1109 22.8693C56.1109 22.1592 56.4287 21.4782 56.9943 20.9762C57.5601 20.4743 58.3271 20.1921 59.1272 20.1921C59.9272 20.1921 60.6942 20.4743 61.26 20.9762C61.8256 21.4782 62.1435 22.1592 62.1435 22.8693C62.1435 23.5795 61.8256 24.2602 61.26 24.7624C60.6942 25.2644 59.9272 25.5465 59.1272 25.5465ZM59.1272 21.5128C58.6845 21.4486 58.2326 21.5599 57.8906 21.8176C57.5489 22.0753 57.352 22.4533 57.352 22.8514C57.352 23.2496 57.5489 23.6276 57.8906 23.8853C58.2325 24.143 58.6845 24.2545 59.1272 24.19C59.608 24.1201 60.0227 23.8509 60.2431 23.4652C60.4633 23.0795 60.4633 22.6236 60.2431 22.2379C60.0226 21.8522 59.608 21.5828 59.1272 21.5128V21.5128Z" fill="white"/>
<path d="M58.6046 32.222C58.2761 32.2217 57.9847 32.0347 57.8809 31.7581L56.5938 27.903C56.5312 27.7371 56.5472 27.5561 56.6384 27.4012C56.7293 27.2464 56.8875 27.1311 57.0766 27.0818L61.42 25.9038V25.9041C61.6102 25.854 61.8159 25.8802 61.9831 25.9753C62.1749 26.038 62.3135 26.1884 62.3449 26.3679L63.6721 30.1875C63.7784 30.5506 63.5501 30.9248 63.1492 31.0441L58.8058 32.1865L58.6046 32.222ZM58.2428 28.1527L59.1275 30.7228L61.9831 29.9375L61.1384 27.4029L58.2428 28.1527Z" fill="white"/>
<path d="M61.9838 46.9286C60.906 46.9286 59.9104 46.4182 59.3715 45.59C58.8326 44.7616 58.8326 43.741 59.3715 42.9128C59.9104 42.0844 60.906 41.5742 61.9838 41.5742C63.0614 41.5742 64.057 42.0844 64.5959 42.9128C65.1348 43.741 65.1348 44.7616 64.5959 45.59C64.057 46.4181 63.0614 46.9286 61.9838 46.9286ZM61.9838 42.8949C61.5785 42.8949 61.1896 43.0378 60.9032 43.292C60.6165 43.5465 60.4555 43.8916 60.4555 44.2514C60.4555 44.611 60.6165 44.9561 60.9032 45.2106C61.1896 45.4648 61.5785 45.6077 61.9838 45.6077C62.3889 45.6077 62.7778 45.4648 63.0645 45.2106C63.3509 44.9561 63.5119 44.611 63.5119 44.2514C63.5119 43.8916 63.3509 43.5465 63.0645 43.292C62.7777 43.0378 62.3889 42.8949 61.9838 42.8949Z" fill="white"/>
<path d="M56.1514 17.3723C56.054 17.0152 55.6795 16.7734 55.2666 16.8013L48.671 17.7294L48.4298 16.587V16.5872C48.3605 16.1019 48.0696 15.6629 47.6255 15.3734C47.1741 15.0795 46.6122 14.9516 46.057 15.0165L39.2202 16.0516C38.688 16.1223 38.21 16.3795 37.893 16.7655C37.5452 17.1591 37.3993 17.6641 37.4908 18.1576L37.6919 19.2641L30.6539 20.2279C30.4503 20.2543 30.2668 20.3524 30.1459 20.5003C30.0247 20.6482 29.9759 20.833 30.0104 21.0133C30.0516 21.34 30.3641 21.5865 30.7344 21.5845H30.8551L55.5081 18.1575C55.7118 18.1314 55.895 18.0333 56.0161 17.8854C56.1373 17.7375 56.1862 17.5525 56.1514 17.3722L56.1514 17.3723ZM38.9787 17.9435C38.9751 17.805 39.0169 17.6686 39.0994 17.5508C39.1793 17.4417 39.3148 17.375 39.4612 17.3723L46.2981 16.3372C46.6041 16.3138 46.8813 16.4981 46.9416 16.7655L47.1829 17.9434L39.1797 19.05L38.9787 17.9435Z" fill="white"/>
<path d="M39.6221 43.823C39.2154 43.8235 38.8796 43.5411 38.8582 43.1806L37.5311 27.0818C37.5075 26.7003 37.8265 26.3699 38.2548 26.3323C38.6695 26.3303 39.0179 26.6087 39.0591 26.9747L40.3863 43.1092C40.3885 43.4772 40.0749 43.7862 39.6625 43.823L39.6221 43.823Z" fill="white"/>
<path d="M48.108 43.8232H48.0275H48.0278C47.8247 43.8052 47.6381 43.7158 47.5097 43.5752C47.3812 43.4342 47.3214 43.2537 47.3441 43.0737L48.9931 26.9749L48.9928 26.9746C49.0027 26.7973 49.0947 26.6318 49.247 26.5167C49.3993 26.4019 49.5985 26.3479 49.7974 26.3678C49.9969 26.3765 50.1837 26.4582 50.3133 26.5934C50.4426 26.7286 50.5035 26.9054 50.4811 27.0817L48.8321 43.2162C48.8108 43.5571 48.4926 43.8235 48.108 43.823L48.108 43.8232Z" fill="white"/>
<path d="M43.9253 43.7872C43.7261 43.7875 43.5356 43.715 43.3987 43.5865C43.2615 43.4583 43.1903 43.2855 43.2012 43.1089V27.0101C43.1482 26.8084 43.2018 26.5963 43.3465 26.4342C43.4916 26.2719 43.7121 26.1772 43.9455 26.1772C44.1786 26.1772 44.3991 26.2719 44.5441 26.4342C44.6892 26.5963 44.7425 26.8084 44.6894 27.0101V43.1089C44.7012 43.292 44.6244 43.4705 44.4785 43.6C44.3326 43.7297 44.1312 43.7977 43.9253 43.7872H43.9253Z" fill="white"/>
<defs>
<radialGradient id="paint0_radial_191_1774" cx="0" cy="0" r="1" gradientUnits="userSpaceOnUse" gradientTransform="translate(207.734 -56.4516) rotate(180) scale(503.125)">
<stop stop-color="#FFFC9F"/>
<stop offset="0.4536" stop-color="#FFB048"/>
<stop offset="1" stop-color="#E20081"/>
</radialGradient>
</defs>
</svg>
