<svg width="149" height="150" viewBox="0 0 149 150" fill="none" xmlns="http://www.w3.org/2000/svg">
<path d="M74.2188 150C115.209 150 148.438 116.421 148.438 75C148.438 33.5786 115.209 0 74.2188 0C33.2289 0 0 33.5786 0 75C0 116.421 33.2289 150 74.2188 150Z" fill="url(#paint0_radial_191_2281)"/>
<path d="M33.7727 95.6136V94.3636H42.5V95.6136H38.8409V106H37.4318V95.6136H33.7727ZM46.8864 106.182C46.0455 106.182 45.3201 105.996 44.7102 105.625C44.1042 105.25 43.6364 104.727 43.3068 104.057C42.9811 103.383 42.8182 102.598 42.8182 101.705C42.8182 100.811 42.9811 100.023 43.3068 99.3409C43.6364 98.6553 44.0947 98.1212 44.6818 97.7386C45.2727 97.3523 45.9621 97.1591 46.75 97.1591C47.2045 97.1591 47.6534 97.2348 48.0966 97.3864C48.5398 97.5379 48.9432 97.7841 49.3068 98.125C49.6705 98.4621 49.9602 98.9091 50.1761 99.4659C50.392 100.023 50.5 100.708 50.5 101.523V102.091H43.7727V100.932H49.1364C49.1364 100.439 49.0379 100 48.8409 99.6136C48.6477 99.2273 48.3712 98.9223 48.0114 98.6989C47.6553 98.4754 47.2348 98.3636 46.75 98.3636C46.2159 98.3636 45.7538 98.4962 45.3636 98.7614C44.9773 99.0227 44.6799 99.3636 44.4716 99.7841C44.2633 100.205 44.1591 100.655 44.1591 101.136V101.909C44.1591 102.568 44.2727 103.127 44.5 103.585C44.7311 104.04 45.0511 104.386 45.4602 104.625C45.8693 104.86 46.3447 104.977 46.8864 104.977C47.2386 104.977 47.5568 104.928 47.8409 104.83C48.1288 104.727 48.3769 104.576 48.5852 104.375C48.7936 104.17 48.9545 103.917 49.0682 103.614L50.3636 103.977C50.2273 104.417 49.9981 104.803 49.6761 105.136C49.3542 105.466 48.9564 105.723 48.483 105.909C48.0095 106.091 47.4773 106.182 46.8864 106.182ZM56.0852 106.182C55.267 106.182 54.5625 105.989 53.9716 105.602C53.3807 105.216 52.9261 104.684 52.608 104.006C52.2898 103.328 52.1307 102.553 52.1307 101.682C52.1307 100.795 52.2936 100.013 52.6193 99.3352C52.9489 98.6534 53.4072 98.1212 53.9943 97.7386C54.5852 97.3523 55.2746 97.1591 56.0625 97.1591C56.6761 97.1591 57.2292 97.2727 57.7216 97.5C58.214 97.7273 58.6174 98.0455 58.9318 98.4545C59.2462 98.8636 59.4413 99.3409 59.517 99.8864H58.1761C58.0739 99.4886 57.8466 99.1364 57.4943 98.8295C57.1458 98.5189 56.6761 98.3636 56.0852 98.3636C55.5625 98.3636 55.1042 98.5 54.7102 98.7727C54.3201 99.0417 54.0152 99.4223 53.7955 99.9148C53.5795 100.403 53.4716 100.977 53.4716 101.636C53.4716 102.311 53.5777 102.898 53.7898 103.398C54.0057 103.898 54.3087 104.286 54.6989 104.562C55.0928 104.839 55.5549 104.977 56.0852 104.977C56.4337 104.977 56.75 104.917 57.0341 104.795C57.3182 104.674 57.5587 104.5 57.7557 104.273C57.9527 104.045 58.0928 103.773 58.1761 103.455H59.517C59.4413 103.97 59.2538 104.434 58.9545 104.847C58.6591 105.256 58.267 105.581 57.7784 105.824C57.2936 106.062 56.7292 106.182 56.0852 106.182ZM62.8182 100.75V106H61.4773V94.3636H62.8182V98.6364H62.9318C63.1364 98.1856 63.4432 97.8277 63.8523 97.5625C64.2652 97.2936 64.8144 97.1591 65.5 97.1591C66.0947 97.1591 66.6155 97.2784 67.0625 97.517C67.5095 97.7519 67.8561 98.1136 68.1023 98.6023C68.3523 99.0871 68.4773 99.7045 68.4773 100.455V106H67.1364V100.545C67.1364 99.8523 66.9564 99.3163 66.5966 98.9375C66.2405 98.5549 65.7462 98.3636 65.1136 98.3636C64.6742 98.3636 64.2803 98.4564 63.9318 98.642C63.5871 98.8277 63.3144 99.0985 63.1136 99.4545C62.9167 99.8106 62.8182 100.242 62.8182 100.75ZM72.2713 100.75V106H70.9304V97.2727H72.2259V98.6364H72.3395C72.544 98.1932 72.8546 97.8371 73.2713 97.5682C73.688 97.2955 74.2259 97.1591 74.8849 97.1591C75.4759 97.1591 75.9929 97.2803 76.4361 97.5227C76.8793 97.7614 77.224 98.125 77.4702 98.6136C77.7164 99.0985 77.8395 99.7121 77.8395 100.455V106H76.4986V100.545C76.4986 99.8598 76.3205 99.3258 75.9645 98.9432C75.6084 98.5568 75.1198 98.3636 74.4986 98.3636C74.0705 98.3636 73.688 98.4564 73.3509 98.642C73.0175 98.8277 72.7543 99.0985 72.5611 99.4545C72.3679 99.8106 72.2713 100.242 72.2713 100.75ZM83.8352 106.182C83.0473 106.182 82.3561 105.994 81.7614 105.619C81.1705 105.244 80.7083 104.72 80.375 104.045C80.0455 103.371 79.8807 102.583 79.8807 101.682C79.8807 100.773 80.0455 99.9792 80.375 99.3011C80.7083 98.6231 81.1705 98.0966 81.7614 97.7216C82.3561 97.3466 83.0473 97.1591 83.8352 97.1591C84.6231 97.1591 85.3125 97.3466 85.9034 97.7216C86.4981 98.0966 86.9602 98.6231 87.2898 99.3011C87.6231 99.9792 87.7898 100.773 87.7898 101.682C87.7898 102.583 87.6231 103.371 87.2898 104.045C86.9602 104.72 86.4981 105.244 85.9034 105.619C85.3125 105.994 84.6231 106.182 83.8352 106.182ZM83.8352 104.977C84.4337 104.977 84.9261 104.824 85.3125 104.517C85.6989 104.21 85.9848 103.807 86.1705 103.307C86.3561 102.807 86.4489 102.265 86.4489 101.682C86.4489 101.098 86.3561 100.555 86.1705 100.051C85.9848 99.5473 85.6989 99.1402 85.3125 98.8295C84.9261 98.5189 84.4337 98.3636 83.8352 98.3636C83.2367 98.3636 82.7443 98.5189 82.358 98.8295C81.9716 99.1402 81.6856 99.5473 81.5 100.051C81.3144 100.555 81.2216 101.098 81.2216 101.682C81.2216 102.265 81.3144 102.807 81.5 103.307C81.6856 103.807 81.9716 104.21 82.358 104.517C82.7443 104.824 83.2367 104.977 83.8352 104.977ZM91.1776 94.3636V106H89.8366V94.3636H91.1776ZM97.179 106.182C96.3911 106.182 95.6998 105.994 95.1051 105.619C94.5142 105.244 94.0521 104.72 93.7188 104.045C93.3892 103.371 93.2244 102.583 93.2244 101.682C93.2244 100.773 93.3892 99.9792 93.7188 99.3011C94.0521 98.6231 94.5142 98.0966 95.1051 97.7216C95.6998 97.3466 96.3911 97.1591 97.179 97.1591C97.9669 97.1591 98.6563 97.3466 99.2472 97.7216C99.8419 98.0966 100.304 98.6231 100.634 99.3011C100.967 99.9792 101.134 100.773 101.134 101.682C101.134 102.583 100.967 103.371 100.634 104.045C100.304 104.72 99.8419 105.244 99.2472 105.619C98.6563 105.994 97.9669 106.182 97.179 106.182ZM97.179 104.977C97.7775 104.977 98.2699 104.824 98.6562 104.517C99.0426 104.21 99.3286 103.807 99.5142 103.307C99.6998 102.807 99.7926 102.265 99.7926 101.682C99.7926 101.098 99.6998 100.555 99.5142 100.051C99.3286 99.5473 99.0426 99.1402 98.6562 98.8295C98.2699 98.5189 97.7775 98.3636 97.179 98.3636C96.5805 98.3636 96.0881 98.5189 95.7017 98.8295C95.3153 99.1402 95.0294 99.5473 94.8438 100.051C94.6581 100.555 94.5653 101.098 94.5653 101.682C94.5653 102.265 94.6581 102.807 94.8438 103.307C95.0294 103.807 95.3153 104.21 95.7017 104.517C96.0881 104.824 96.5805 104.977 97.179 104.977ZM106.703 109.455C106.055 109.455 105.499 109.371 105.033 109.205C104.567 109.042 104.179 108.826 103.868 108.557C103.561 108.292 103.317 108.008 103.135 107.705L104.203 106.955C104.324 107.114 104.478 107.295 104.663 107.5C104.849 107.708 105.103 107.888 105.425 108.04C105.75 108.195 106.177 108.273 106.703 108.273C107.408 108.273 107.989 108.102 108.447 107.761C108.906 107.42 109.135 106.886 109.135 106.159V104.386H109.021C108.923 104.545 108.783 104.742 108.601 104.977C108.423 105.208 108.165 105.415 107.828 105.597C107.495 105.775 107.044 105.864 106.476 105.864C105.771 105.864 105.139 105.697 104.578 105.364C104.021 105.03 103.58 104.545 103.254 103.909C102.932 103.273 102.771 102.5 102.771 101.591C102.771 100.697 102.929 99.9186 103.243 99.2557C103.557 98.589 103.995 98.0739 104.555 97.7102C105.116 97.3428 105.764 97.1591 106.499 97.1591C107.067 97.1591 107.518 97.2538 107.851 97.4432C108.188 97.6288 108.446 97.8409 108.624 98.0795C108.805 98.3144 108.946 98.5076 109.044 98.6591H109.18V97.2727H110.476V106.25C110.476 107 110.305 107.61 109.964 108.08C109.627 108.553 109.173 108.9 108.601 109.119C108.033 109.343 107.4 109.455 106.703 109.455ZM106.658 104.659C107.196 104.659 107.65 104.536 108.021 104.29C108.393 104.044 108.675 103.689 108.868 103.227C109.061 102.765 109.158 102.212 109.158 101.568C109.158 100.939 109.063 100.384 108.874 99.9034C108.684 99.4223 108.404 99.0455 108.033 98.7727C107.661 98.5 107.203 98.3636 106.658 98.3636C106.089 98.3636 105.616 98.5076 105.237 98.7955C104.862 99.0833 104.58 99.4697 104.391 99.9545C104.205 100.439 104.112 100.977 104.112 101.568C104.112 102.174 104.207 102.71 104.396 103.176C104.589 103.638 104.874 104.002 105.249 104.267C105.627 104.528 106.097 104.659 106.658 104.659ZM113.794 109.273C113.567 109.273 113.364 109.254 113.186 109.216C113.008 109.182 112.885 109.148 112.817 109.114L113.158 107.932C113.483 108.015 113.771 108.045 114.021 108.023C114.271 108 114.493 107.888 114.686 107.688C114.883 107.491 115.063 107.17 115.226 106.727L115.476 106.045L112.249 97.2727H113.703L116.112 104.227H116.203L118.612 97.2727H120.067L116.362 107.273C116.196 107.723 115.989 108.097 115.743 108.392C115.497 108.691 115.211 108.913 114.885 109.057C114.563 109.201 114.199 109.273 113.794 109.273Z" fill="white"/>
<path d="M48.312 67.9603C47.5876 67.9603 47 68.5025 47 69.172C47 69.841 47.5876 70.3837 48.312 70.3837H54.4789V71.7167C54.4789 73.6447 55.3081 75.4942 56.7849 76.8577C58.2612 78.2216 60.2637 78.9875 62.3514 78.9875H63.7947V84.6831C63.7947 85.3521 64.3823 85.8948 65.1067 85.8948C65.8316 85.8948 66.4187 85.3521 66.4187 84.6831V78.9875H71.5358V84.6831H71.5363C71.5363 85.3521 72.1234 85.8948 72.8482 85.8948C73.5726 85.8948 74.1602 85.3521 74.1602 84.6831V78.9875H79.2773V84.6831C79.2773 85.3521 79.8649 85.8948 80.5893 85.8948C81.3142 85.8948 81.9013 85.3521 81.9013 84.6831V78.9875H87.0184V84.6831H87.0189C87.0189 85.3521 87.606 85.8948 88.3308 85.8948C89.0552 85.8948 89.6428 85.3521 89.6428 84.6831V78.9875H91.0861C93.1737 78.9875 95.1763 78.2217 96.6526 76.8577C98.1293 75.4942 98.9586 73.6448 98.9586 71.7167V70.3837H105.126C105.85 70.3837 106.437 69.841 106.437 69.172C106.437 68.5025 105.85 67.9603 105.126 67.9603H98.9586V63.2338H105.126C105.85 63.2338 106.437 62.6916 106.437 62.0221C106.437 61.3531 105.85 60.8104 105.126 60.8104H98.9586V56.0844H105.126C105.85 56.0844 106.437 55.5417 106.437 54.8727C106.437 54.2032 105.85 53.661 105.126 53.661H98.9586V48.9345H105.126C105.85 48.9345 106.437 48.3923 106.437 47.7228C106.437 47.0538 105.85 46.5111 105.126 46.5111H98.9586V45.1781C98.9586 43.2501 98.1294 41.4005 96.6526 40.037C95.1763 38.6732 93.1738 37.9073 91.0861 37.9073H89.6428V32.2117C89.6428 31.5427 89.0552 31 88.3308 31C87.606 31 87.0189 31.5427 87.0189 32.2117V37.9073H81.9013V32.2117C81.9013 31.5427 81.3141 31 80.5893 31C79.8649 31 79.2773 31.5427 79.2773 32.2117V37.9073H74.1602V32.2117C74.1602 31.5427 73.5726 31 72.8482 31C72.1233 31 71.5362 31.5427 71.5362 32.2117V37.9073H66.4186V32.2117C66.4186 31.5427 65.8315 31 65.1067 31C64.3823 31 63.7947 31.5427 63.7947 32.2117V37.9073H62.3514C60.2638 37.9073 58.2612 38.6731 56.7849 40.037C55.3082 41.4005 54.4789 43.2499 54.4789 45.1781V46.5111H48.312C47.5876 46.5111 47 47.0538 47 47.7228C47 48.3923 47.5876 48.9345 48.312 48.9345H54.4789V53.6605L48.312 53.661C47.5876 53.661 47 54.2032 47 54.8727C47 55.5417 47.5876 56.0844 48.312 56.0844H54.4789V60.8104H48.312C47.5876 60.8104 47 61.3531 47 62.0221C47 62.6916 47.5876 63.2338 48.312 63.2338H54.4789V67.9598L48.312 67.9603ZM57.1029 45.1783C57.1029 43.8926 57.6561 42.6598 58.64 41.7507C59.6243 40.842 60.9592 40.331 62.3513 40.331H91.086C92.4781 40.331 93.8129 40.842 94.7973 41.7507C95.7812 42.6598 96.3345 43.8926 96.3345 45.1783V71.7169C96.3345 73.0026 95.7812 74.2354 94.7973 75.1446C93.813 76.0532 92.4781 76.5642 91.086 76.5642H62.3513C60.9592 76.5642 59.6244 76.0532 58.64 75.1446C57.6561 74.2355 57.1029 73.0026 57.1029 71.7169V45.1783Z" fill="white"/>
<path d="M63.0711 61.3561L64.9734 61.5983L64.9739 61.5987C65.2045 62.3988 65.5345 63.1714 65.9578 63.9008L64.8425 65.2943V65.2947C64.5025 65.7977 64.584 66.4515 65.0393 66.87L67.5979 69.233C68.0509 69.6535 68.7589 69.7287 69.3035 69.4147L70.8127 68.3847C71.6026 68.7757 72.4391 69.0804 73.3053 69.2934L73.5676 71.0503L73.568 71.0507C73.6943 71.6239 74.2467 72.0321 74.88 72.0203H78.5537C79.187 72.0321 79.7394 71.6238 79.8657 71.0507L80.1279 69.2938L80.1284 69.2934C80.9946 69.0804 81.8311 68.7757 82.621 68.3847L84.1297 69.4147H84.1302C84.6748 69.7287 85.3827 69.6535 85.8358 69.233L88.3944 66.87C88.8497 66.4515 88.9312 65.7977 88.5911 65.2947L87.4759 63.9008C87.8992 63.1713 88.2292 62.3987 88.4598 61.5987L90.3621 61.3565L90.3626 61.3561C90.9831 61.2395 91.4251 60.7293 91.4123 60.1444V56.7515C91.4251 56.1665 90.9831 55.6564 90.3626 55.5398L88.4603 55.2976L88.4598 55.2972C88.2292 54.4971 87.8992 53.7245 87.4759 52.9951L88.5911 51.6016V51.6012C88.9312 51.0982 88.8497 50.4444 88.3944 50.0259L85.8358 47.6629C85.3828 47.2424 84.6748 47.1672 84.1302 47.4812L82.621 48.5112C81.8311 48.1202 80.9946 47.8155 80.1283 47.6025L79.8661 45.8456L79.8657 45.8452C79.7394 45.272 79.187 44.8638 78.5537 44.8756H74.88C74.2466 44.8638 73.6943 45.2721 73.568 45.8452L73.3058 47.6021L73.3053 47.6025C72.4391 47.8155 71.6025 48.1202 70.8127 48.5112L69.3039 47.4812H69.3035C68.7589 47.1672 68.051 47.2424 67.5979 47.6629L65.0393 50.0259C64.584 50.4444 64.5025 51.0982 64.8425 51.6012L65.9578 52.9951C65.5345 53.7246 65.2045 54.4972 64.9739 55.2972L63.0716 55.5394L63.0711 55.5398C62.4506 55.6564 62.0085 56.1666 62.0214 56.7515V60.1444C62.0085 60.7294 62.4506 61.2395 63.0711 61.3561V61.3561ZM64.6457 57.7814L66.2204 57.5392H66.2199C66.7535 57.4475 67.1704 57.0621 67.2697 56.5697C67.5346 55.5122 68.0014 54.5072 68.6476 53.6007C68.9162 53.1843 68.8906 52.6599 68.5817 52.2677L67.6633 50.9951L68.6472 50.0864L70.0251 50.9346C70.4497 51.2199 71.0177 51.2436 71.4684 50.9955C72.45 50.3987 73.5382 49.9676 74.6831 49.7229C75.2162 49.6312 75.6336 49.2461 75.7329 48.7533L75.9951 47.2991H77.4384L77.7006 48.7533C77.7999 49.2461 78.2173 49.6312 78.7504 49.7229C79.8953 49.9676 80.9835 50.3987 81.9651 50.9955C82.4159 51.2436 82.9838 51.2199 83.4084 50.9346L84.7863 50.0864L85.7702 50.9951L84.8518 52.2677C84.5429 52.6599 84.5172 53.1844 84.7859 53.6007C85.432 54.5072 85.8988 55.5123 86.1638 56.5697C86.2631 57.0621 86.68 57.4475 87.2136 57.5392L88.7882 57.7814V59.1144L87.2136 59.3566C86.68 59.4483 86.2631 59.8337 86.1638 60.3261C85.8988 61.3836 85.4321 62.3886 84.7859 63.2951C84.5172 63.7115 84.5429 64.2359 84.8518 64.6281L85.7702 65.9007L84.7863 66.8094L83.4084 65.9612C82.9837 65.6759 82.4158 65.6522 81.9651 65.9003C80.9835 66.4971 79.8953 66.9282 78.7504 67.1729C78.2172 67.2646 77.7999 67.6497 77.7006 68.1425L77.4384 69.5967L75.9951 69.5963L75.7329 68.1424C75.6336 67.6496 75.2162 67.2645 74.6831 67.1728C73.5381 66.9281 72.45 66.497 71.4684 65.9002C71.0176 65.6521 70.4497 65.6758 70.0251 65.9611L68.6472 66.8093L67.6633 65.9006L68.5817 64.628C68.8906 64.2358 68.9162 63.7113 68.6476 63.295C68.0015 62.3885 67.5347 61.3834 67.2697 60.326C67.1704 59.8336 66.7535 59.4482 66.2199 59.3565L64.6453 59.1143L64.6457 57.7814Z" fill="white"/>
<path d="M76.7206 63.7188C78.2345 63.7188 79.686 63.1634 80.7564 62.1748C81.8268 61.1862 82.4281 59.8456 82.4281 58.4475C82.4281 57.0494 81.8268 55.7088 80.7564 54.7202C79.6859 53.7316 78.2345 53.1763 76.7206 53.1763C75.2068 53.1763 73.7553 53.7316 72.6849 54.7202C71.6145 55.7089 71.0132 57.0494 71.0132 58.4475C71.0132 59.8456 71.6145 61.1862 72.6849 62.1748C73.7553 63.1634 75.2068 63.7188 76.7206 63.7188ZM76.7206 55.5998C77.5384 55.5998 78.3228 55.8998 78.9007 56.4341C79.4791 56.9679 79.804 57.6923 79.804 58.4475C79.804 59.2027 79.4791 59.9272 78.9007 60.4609C78.3227 60.9952 77.5384 61.2952 76.7206 61.2952C75.9029 61.2952 75.1185 60.9952 74.5406 60.4609C73.9622 59.9271 73.6373 59.2027 73.6373 58.4475C73.6373 57.6923 73.9622 56.9678 74.5406 56.4341C75.1186 55.8998 75.9029 55.5998 76.7206 55.5998V55.5998Z" fill="white"/>
<defs>
<radialGradient id="paint0_radial_191_2281" cx="0" cy="0" r="1" gradientUnits="userSpaceOnUse" gradientTransform="translate(324.648 -89.164) rotate(180) scale(786.306 794.583)">
<stop stop-color="#FFFC9F"/>
<stop offset="0.4536" stop-color="#FFB048"/>
<stop offset="1" stop-color="#E20081"/>
</radialGradient>
</defs>
</svg>
