<svg width="150" height="150" viewBox="0 0 150 150" fill="none" xmlns="http://www.w3.org/2000/svg">
<path d="M75 150C116.421 150 150 116.421 150 75C150 33.5786 116.421 0 75 0C33.5786 0 0 33.5786 0 75C0 116.421 33.5786 150 75 150Z" fill="url(#paint0_radial_127_1630)"/>
<path d="M42.8182 97.3636V109H41.4091V97.3636H42.8182ZM46.8026 103.75V109H45.4616V100.273H46.7571V101.636H46.8707C47.0753 101.193 47.3859 100.837 47.8026 100.568C48.2192 100.295 48.7571 100.159 49.4162 100.159C50.0071 100.159 50.5241 100.28 50.9673 100.523C51.4105 100.761 51.7552 101.125 52.0014 101.614C52.2476 102.098 52.3707 102.712 52.3707 103.455V109H51.0298V103.545C51.0298 102.86 50.8518 102.326 50.4957 101.943C50.1397 101.557 49.651 101.364 49.0298 101.364C48.6018 101.364 48.2192 101.456 47.8821 101.642C47.5488 101.828 47.2855 102.098 47.0923 102.455C46.8991 102.811 46.8026 103.242 46.8026 103.75ZM61.0028 102.227L59.7983 102.568C59.7225 102.367 59.6108 102.172 59.4631 101.983C59.3191 101.79 59.1222 101.631 58.8722 101.506C58.6222 101.381 58.3021 101.318 57.9119 101.318C57.3778 101.318 56.9328 101.441 56.5767 101.688C56.2244 101.93 56.0483 102.239 56.0483 102.614C56.0483 102.947 56.1695 103.21 56.4119 103.403C56.6544 103.597 57.0331 103.758 57.5483 103.886L58.8438 104.205C59.6241 104.394 60.2055 104.684 60.5881 105.074C60.9706 105.46 61.1619 105.958 61.1619 106.568C61.1619 107.068 61.018 107.515 60.7301 107.909C60.446 108.303 60.0483 108.614 59.5369 108.841C59.0256 109.068 58.4309 109.182 57.7528 109.182C56.8627 109.182 56.1259 108.989 55.5426 108.602C54.9593 108.216 54.59 107.652 54.4347 106.909L55.7074 106.591C55.8286 107.061 56.0578 107.413 56.3949 107.648C56.7358 107.883 57.1809 108 57.7301 108C58.3551 108 58.8513 107.867 59.2188 107.602C59.59 107.333 59.7756 107.011 59.7756 106.636C59.7756 106.333 59.6695 106.08 59.4574 105.875C59.2453 105.667 58.9195 105.511 58.4801 105.409L57.0256 105.068C56.2263 104.879 55.6392 104.585 55.2642 104.188C54.893 103.786 54.7074 103.284 54.7074 102.682C54.7074 102.189 54.8456 101.754 55.1222 101.375C55.4025 100.996 55.7831 100.699 56.2642 100.483C56.7491 100.267 57.2983 100.159 57.9119 100.159C58.7756 100.159 59.4536 100.348 59.946 100.727C60.4422 101.106 60.7945 101.606 61.0028 102.227ZM63.1804 112.273V100.273H64.4759V101.659H64.6349C64.7334 101.508 64.8698 101.314 65.044 101.08C65.2221 100.841 65.4759 100.629 65.8054 100.443C66.1387 100.254 66.5895 100.159 67.1577 100.159C67.8925 100.159 68.5402 100.343 69.1009 100.71C69.6615 101.078 70.099 101.598 70.4134 102.273C70.7277 102.947 70.8849 103.742 70.8849 104.659C70.8849 105.583 70.7277 106.384 70.4134 107.062C70.099 107.737 69.6634 108.259 69.1065 108.631C68.5497 108.998 67.9077 109.182 67.1804 109.182C66.6198 109.182 66.1709 109.089 65.8338 108.903C65.4967 108.714 65.2372 108.5 65.0554 108.261C64.8736 108.019 64.7334 107.818 64.6349 107.659H64.5213V112.273H63.1804ZM64.4986 104.636C64.4986 105.295 64.5952 105.877 64.7884 106.381C64.9815 106.881 65.2637 107.273 65.6349 107.557C66.0062 107.837 66.4607 107.977 66.9986 107.977C67.5592 107.977 68.027 107.83 68.402 107.534C68.7808 107.235 69.0649 106.833 69.2543 106.33C69.4474 105.822 69.544 105.258 69.544 104.636C69.544 104.023 69.4493 103.47 69.2599 102.977C69.0743 102.481 68.7921 102.089 68.4134 101.801C68.0384 101.509 67.5668 101.364 66.9986 101.364C66.4531 101.364 65.9948 101.502 65.6236 101.778C65.2524 102.051 64.9721 102.434 64.7827 102.926C64.5933 103.415 64.4986 103.985 64.4986 104.636ZM72.9304 109V100.273H74.2713V109H72.9304ZM73.6122 98.8182C73.3509 98.8182 73.1255 98.7292 72.9361 98.5511C72.7505 98.3731 72.6577 98.1591 72.6577 97.9091C72.6577 97.6591 72.7505 97.4451 72.9361 97.267C73.1255 97.089 73.3509 97 73.6122 97C73.8736 97 74.0971 97.089 74.2827 97.267C74.4721 97.4451 74.5668 97.6591 74.5668 97.9091C74.5668 98.1591 74.4721 98.3731 74.2827 98.5511C74.0971 98.7292 73.8736 98.8182 73.6122 98.8182ZM76.7273 109V100.273H78.0227V101.591H78.1136C78.2727 101.159 78.5606 100.809 78.9773 100.54C79.3939 100.271 79.8636 100.136 80.3864 100.136C80.4848 100.136 80.608 100.138 80.7557 100.142C80.9034 100.146 81.0152 100.152 81.0909 100.159V101.523C81.0455 101.511 80.9413 101.494 80.7784 101.472C80.6193 101.445 80.4508 101.432 80.2727 101.432C79.8485 101.432 79.4697 101.521 79.1364 101.699C78.8068 101.873 78.5455 102.116 78.3523 102.426C78.1629 102.733 78.0682 103.083 78.0682 103.477V109H76.7273ZM85.2486 109.205C84.6955 109.205 84.1937 109.1 83.7429 108.892C83.2921 108.68 82.9342 108.375 82.669 107.977C82.4039 107.576 82.2713 107.091 82.2713 106.523C82.2713 106.023 82.3698 105.617 82.5668 105.307C82.7637 104.992 83.027 104.746 83.3565 104.568C83.6861 104.39 84.0497 104.258 84.4474 104.17C84.849 104.08 85.2524 104.008 85.6577 103.955C86.188 103.886 86.6179 103.835 86.9474 103.801C87.2808 103.763 87.5232 103.701 87.6747 103.614C87.83 103.527 87.9077 103.375 87.9077 103.159V103.114C87.9077 102.553 87.7543 102.117 87.4474 101.807C87.1444 101.496 86.6842 101.341 86.0668 101.341C85.4266 101.341 84.9247 101.481 84.5611 101.761C84.1974 102.042 83.9418 102.341 83.794 102.659L82.5213 102.205C82.7486 101.674 83.0516 101.261 83.4304 100.966C83.813 100.667 84.2296 100.458 84.6804 100.341C85.1349 100.22 85.5819 100.159 86.0213 100.159C86.3016 100.159 86.6236 100.193 86.9872 100.261C87.3546 100.326 87.7088 100.46 88.0497 100.665C88.3944 100.869 88.6804 101.178 88.9077 101.591C89.1349 102.004 89.2486 102.557 89.2486 103.25V109H87.9077V107.818H87.8395C87.7486 108.008 87.5971 108.21 87.3849 108.426C87.1728 108.642 86.8906 108.826 86.5384 108.977C86.1861 109.129 85.7562 109.205 85.2486 109.205ZM85.4531 108C85.9834 108 86.4304 107.896 86.794 107.688C87.1615 107.479 87.438 107.21 87.6236 106.881C87.813 106.551 87.9077 106.205 87.9077 105.841V104.614C87.8509 104.682 87.7259 104.744 87.5327 104.801C87.3433 104.854 87.1236 104.902 86.8736 104.943C86.6274 104.981 86.3868 105.015 86.152 105.045C85.9209 105.072 85.7334 105.095 85.5895 105.114C85.241 105.159 84.9152 105.233 84.6122 105.335C84.313 105.434 84.0705 105.583 83.8849 105.784C83.7031 105.981 83.6122 106.25 83.6122 106.591C83.6122 107.057 83.7846 107.409 84.1293 107.648C84.4777 107.883 84.919 108 85.4531 108ZM95.4915 100.273V101.409H90.9688V100.273H95.4915ZM92.2869 98.1818H93.6278V106.5C93.6278 106.879 93.6828 107.163 93.7926 107.352C93.9063 107.538 94.0502 107.663 94.2244 107.727C94.4025 107.788 94.59 107.818 94.7869 107.818C94.9347 107.818 95.0559 107.811 95.1506 107.795C95.2453 107.777 95.321 107.761 95.3778 107.75L95.6506 108.955C95.5597 108.989 95.4328 109.023 95.2699 109.057C95.107 109.095 94.9006 109.114 94.6506 109.114C94.2718 109.114 93.9006 109.032 93.5369 108.869C93.1771 108.706 92.8778 108.458 92.6392 108.125C92.4044 107.792 92.2869 107.371 92.2869 106.864V98.1818ZM97.5085 109V100.273H98.8494V109H97.5085ZM98.1903 98.8182C97.929 98.8182 97.7036 98.7292 97.5142 98.5511C97.3286 98.3731 97.2358 98.1591 97.2358 97.9091C97.2358 97.6591 97.3286 97.4451 97.5142 97.267C97.7036 97.089 97.929 97 98.1903 97C98.4517 97 98.6752 97.089 98.8608 97.267C99.0502 97.4451 99.1449 97.6591 99.1449 97.9091C99.1449 98.1591 99.0502 98.3731 98.8608 98.5511C98.6752 98.7292 98.4517 98.8182 98.1903 98.8182ZM104.964 109.182C104.124 109.182 103.398 108.996 102.788 108.625C102.182 108.25 101.714 107.727 101.385 107.057C101.059 106.383 100.896 105.598 100.896 104.705C100.896 103.811 101.059 103.023 101.385 102.341C101.714 101.655 102.173 101.121 102.76 100.739C103.351 100.352 104.04 100.159 104.828 100.159C105.283 100.159 105.732 100.235 106.175 100.386C106.618 100.538 107.021 100.784 107.385 101.125C107.749 101.462 108.038 101.909 108.254 102.466C108.47 103.023 108.578 103.708 108.578 104.523V105.091H101.851V103.932H107.214C107.214 103.439 107.116 103 106.919 102.614C106.726 102.227 106.449 101.922 106.089 101.699C105.733 101.475 105.313 101.364 104.828 101.364C104.294 101.364 103.832 101.496 103.442 101.761C103.055 102.023 102.758 102.364 102.55 102.784C102.341 103.205 102.237 103.655 102.237 104.136V104.909C102.237 105.568 102.351 106.127 102.578 106.585C102.809 107.04 103.129 107.386 103.538 107.625C103.947 107.86 104.423 107.977 104.964 107.977C105.317 107.977 105.635 107.928 105.919 107.83C106.207 107.727 106.455 107.576 106.663 107.375C106.872 107.17 107.033 106.917 107.146 106.614L108.442 106.977C108.305 107.417 108.076 107.803 107.754 108.136C107.432 108.466 107.035 108.723 106.561 108.909C106.088 109.091 105.555 109.182 104.964 109.182Z" fill="white"/>
<path d="M93.6999 51.834C93.6999 41.9744 85.3135 33.9534 75.0047 33.9534C64.6959 33.9534 56.3096 41.9744 56.3096 51.834C56.3096 55.0452 57.1567 58.2049 58.7726 61.02C60.388 63.8352 62.7203 66.2149 65.5528 67.939L67.7344 69.2667V81.6356C67.7344 81.8507 67.8076 82.0596 67.943 82.2312L67.9421 82.2316L71.058 86.2051C71.2541 86.4552 71.562 86.6025 71.8889 86.6025H78.1206C78.4475 86.6025 78.7553 86.4552 78.9515 86.2051L82.0673 82.2316L82.0664 82.2312C82.2018 82.0596 82.2751 81.8507 82.2751 81.6356V69.2667L84.4566 67.939C87.2892 66.2148 89.6215 63.8352 91.2369 61.02C92.8527 58.2049 93.6999 55.0452 93.6999 51.834H93.6999ZM80.1978 72.6948V73.9658L69.8116 77.2772V72.6948H80.1978ZM69.8116 79.3708L80.1978 76.0594V80.6418H69.8116V79.3708ZM77.6013 84.6153H72.4082L70.8502 82.6285H79.1592L77.6013 84.6153ZM83.341 66.2623L80.6785 67.8827C80.379 68.065 80.1977 68.3812 80.1977 68.7209V70.7076H78.1205V62.0564L85.2286 51.3732V51.3736C85.4896 50.9807 85.4307 50.4668 85.0867 50.1377L81.9708 47.1576C81.5651 46.7695 80.9076 46.7695 80.5019 47.1576L78.1206 49.4352L75.7392 47.1576C75.3335 46.7695 74.676 46.7695 74.2703 47.1576L71.889 49.4352L69.5076 47.1576L68.0387 48.5625L71.1546 51.5426C71.5603 51.9306 72.2178 51.9306 72.6235 51.5426L75.0048 49.265L77.3862 51.5426C77.7919 51.9306 78.4494 51.9306 78.8551 51.5426L81.2364 49.265L83.0285 50.979L76.2057 61.2338C76.0995 61.3934 76.0434 61.5784 76.0434 61.7673V70.7076H69.8117V68.7209C69.8117 68.3812 69.6304 68.065 69.3309 67.8827L66.6685 66.2623C61.4985 63.1336 58.3711 57.6847 58.3868 51.8341C58.3868 46.1558 61.5542 40.9088 66.6958 38.0699C71.8373 35.2303 78.1721 35.2303 83.3137 38.0699C88.4552 40.909 91.6226 46.1562 91.6226 51.8341C91.6384 57.6852 88.5109 63.1341 83.341 66.2623L83.341 66.2623Z" fill="white"/>
<path d="M73.9658 27H76.0431V30.9735H73.9658V27Z" fill="white"/>
<path d="M60.6025 30.957L62.4015 29.9636L64.4788 33.4049L62.6798 34.3983L60.6025 30.957Z" fill="white"/>
<path d="M51.0996 40.7743L52.1382 39.0537L55.7362 41.0405L54.6976 42.7611L51.0996 40.7743Z" fill="white"/>
<path d="M48 51.8345H52.1545V53.8212H48V51.8345Z" fill="white"/>
<path d="M51.0996 64.8808L54.6976 62.894L55.7362 64.6147L52.1382 66.6014L51.0996 64.8808Z" fill="white"/>
<path d="M60.6025 74.6976L62.6798 71.2563L64.4788 72.2497L62.4015 75.691L60.6025 74.6976Z" fill="white"/>
<path d="M85.5293 72.2514L87.3283 71.2581L89.4055 74.6993L87.6065 75.6927L85.5293 72.2514Z" fill="white"/>
<path d="M94.2734 64.6147L95.3121 62.894L98.9101 64.8808L97.8714 66.6014L94.2734 64.6147Z" fill="white"/>
<path d="M97.8545 51.8345H102.009V53.8212H97.8545V51.8345Z" fill="white"/>
<path d="M94.2734 41.0402L97.8714 39.0535L98.9101 40.7741L95.3121 42.7608L94.2734 41.0402Z" fill="white"/>
<path d="M85.5293 33.4044L87.6065 29.9631L89.4055 30.9565L87.3283 34.3978L85.5293 33.4044Z" fill="white"/>
<defs>
<radialGradient id="paint0_radial_127_1630" cx="0" cy="0" r="1" gradientUnits="userSpaceOnUse" gradientTransform="translate(328.001 -89.1341) rotate(180) scale(794.407)">
<stop stop-color="#FFFC9F"/>
<stop offset="0.4536" stop-color="#FFB048"/>
<stop offset="1" stop-color="#E20081"/>
</radialGradient>
</defs>
</svg>
