<svg width="100" height="100" viewBox="0 0 100 100" fill="none" xmlns="http://www.w3.org/2000/svg">
<path d="M77.9224 66.4259C65.5972 65.2502 61.4641 61.7275 61.7369 52.218C68.5466 47.3983 71.8392 38.6528 72.4036 32.1036C72.8626 26.7596 73.9386 14.2463 66.8115 6.38846C62.9648 2.14882 57.3873 -0.000244141 50.2341 -0.000244141C43.0809 -0.000244141 37.5024 2.14882 33.6567 6.39025C26.5269 14.2486 27.6038 26.7594 28.0628 32.1031C28.6262 38.6524 31.9171 47.3987 38.7286 52.2184C39.0022 61.727 34.8698 65.2506 22.5446 66.4264C15.7376 67.0753 10.8468 69.3735 7.59281 73.4519C3.51931 78.5576 2.17495 86.3883 3.4822 97.3919L3.48134 97.3911C3.56676 98.1682 3.95505 98.879 4.56078 99.3648C5.16738 99.8506 5.9405 100.072 6.70846 99.9788C7.47642 99.8855 8.17619 99.4861 8.65164 98.8685C9.1262 98.2519 9.33762 97.4678 9.23837 96.6924C8.12788 87.3399 9.0658 80.9398 12.1065 77.1293C14.3275 74.3453 17.9195 72.7526 23.0882 72.2591C33.7584 71.243 43.5416 68.3029 44.4424 54.9498C48.2243 56.0566 52.2401 56.0566 56.0221 54.9498C56.9237 68.3022 66.7069 71.2423 77.378 72.2591C86.9549 73.1732 92.5636 77.3798 90.9318 95.5048C90.8628 96.2793 91.1001 97.0495 91.5928 97.6469C92.0846 98.2435 92.7913 98.6185 93.5575 98.6883C93.6464 98.697 93.7353 98.7005 93.8233 98.7005V98.7014C95.3212 98.6988 96.5714 97.5431 96.7079 96.0359C98.4242 76.9593 92.63 67.8267 77.9225 66.4245L77.9224 66.4259ZM33.8387 31.5965C33.4452 27.022 32.5246 16.3106 37.9288 10.351C40.6312 7.37156 44.7714 5.86107 50.2323 5.86107C55.6943 5.86107 59.8334 7.37083 62.5341 10.3501C67.94 16.309 67.0184 27.0211 66.6257 31.5956C66.1856 36.6927 62.3848 49.9211 50.2321 49.9211C38.077 49.9211 34.277 36.6936 33.8385 31.5965H33.8387ZM26.8289 91.1252L25.3473 97.6954L25.3465 97.6945C25.1808 98.4577 24.7209 99.1231 24.0677 99.5418C23.4154 99.9604 22.6233 100.098 21.87 99.9247C21.1158 99.7511 20.4618 99.2801 20.0536 98.6164C19.6446 97.9526 19.5152 97.152 19.693 96.3914L21.1745 89.8212H21.1754C21.3402 89.058 21.8009 88.3935 22.4541 87.9739C23.1065 87.5553 23.8977 87.4175 24.6519 87.5919C25.406 87.7655 26.0592 88.2365 26.4682 88.8993C26.8772 89.5631 27.0066 90.3646 26.828 91.1243L26.8289 91.1252ZM80.7733 96.3923L80.7724 96.3914C81.127 97.9701 80.1494 99.5401 78.5885 99.9003C78.3762 99.95 78.1596 99.9744 77.9422 99.9744C76.5901 99.9727 75.4183 99.0272 75.1172 97.6945L73.6357 91.1243C73.2793 89.5465 74.2569 87.9749 75.8178 87.6154C77.3796 87.2552 78.9344 88.2434 79.2901 89.8212L80.7733 96.3923Z" fill="white"/>
</svg>
