<svg width="100" height="100" viewBox="0 0 100 100" fill="none" xmlns="http://www.w3.org/2000/svg">
<path d="M13.1361 38.4623H26.2721C26.9688 38.4623 27.6373 38.1921 28.1299 37.7114C28.6225 37.2306 28.8993 36.5781 28.8993 35.8982V23.0777C28.8993 22.3977 28.6225 21.7452 28.1299 21.2645C27.6373 20.7837 26.9688 20.5135 26.2721 20.5135H13.1361C11.6853 20.5135 10.5089 21.6617 10.5089 23.0777V35.8982C10.5089 36.5781 10.7857 37.2306 11.2783 37.7114C11.7709 38.1921 12.4394 38.4623 13.1361 38.4623ZM15.7633 25.6418H23.6449V33.3341H15.7633V25.6418Z" fill="white"/>
<path d="M39.4102 38.4623H52.5462C53.2429 38.4623 53.9114 38.1921 54.404 37.7114C54.8966 37.2306 55.1734 36.5781 55.1734 35.8982V23.0777C55.1734 22.3977 54.8966 21.7452 54.404 21.2645C53.9114 20.7837 53.2429 20.5135 52.5462 20.5135H39.4102C37.9593 20.5135 36.783 21.6617 36.783 23.0777V35.8982C36.783 36.5781 37.0598 37.2306 37.5524 37.7114C38.045 38.1921 38.7135 38.4623 39.4102 38.4623ZM42.0374 25.6418H49.919V33.3341H42.0374V25.6418Z" fill="white"/>
<path d="M26.2721 61.5354C26.9688 61.5354 27.6373 61.2652 28.1299 60.7845C28.6225 60.3037 28.8993 59.6512 28.8993 58.9713V46.1508C28.8993 45.4708 28.6225 44.8183 28.1299 44.3376C27.6373 43.8568 26.9688 43.5867 26.2721 43.5867H13.1361C11.6853 43.5867 10.5089 44.7348 10.5089 46.1508V58.9713C10.5089 59.6512 10.7857 60.3037 11.2783 60.7845C11.7709 61.2652 12.4394 61.5354 13.1361 61.5354H26.2721ZM15.7633 48.7149H23.6449V56.4072H15.7633V48.7149Z" fill="white"/>
<path d="M39.4102 61.5354H52.5462C53.2429 61.5354 53.9114 61.2652 54.404 60.7845C54.8966 60.3037 55.1734 59.6512 55.1734 58.9713V46.1508C55.1734 45.4708 54.8966 44.8183 54.404 44.3376C53.9114 43.8568 53.2429 43.5867 52.5462 43.5867H39.4102C37.9593 43.5867 36.783 44.7348 36.783 46.1508V58.9713C36.783 59.6512 37.0598 60.3037 37.5524 60.7845C38.045 61.2652 38.7135 61.5354 39.4102 61.5354ZM42.0374 48.7149H49.919V56.4072H42.0374V48.7149Z" fill="white"/>
<path d="M86.6991 43.5897H76.1903C74.7395 43.5897 73.5631 44.7379 73.5631 46.1538V58.9743C73.5631 59.6543 73.8399 60.3068 74.3325 60.7875C74.8251 61.2683 75.4936 61.5384 76.1903 61.5384H86.6991C87.3958 61.5384 88.0643 61.2683 88.5569 60.7875C89.0495 60.3068 89.3263 59.6543 89.3263 58.9743V46.1538C89.3263 45.4739 89.0495 44.8214 88.5569 44.3406C88.0643 43.8599 87.3958 43.5897 86.6991 43.5897ZM84.0719 56.4102H78.8175V48.7179H84.0719V56.4102Z" fill="white"/>
<path d="M86.6991 66.6638H76.1903C74.7395 66.6638 73.5631 67.812 73.5631 69.2279V82.0484C73.5631 82.7284 73.8399 83.3809 74.3325 83.8616C74.8251 84.3424 75.4936 84.6125 76.1903 84.6125H86.6991C87.3958 84.6125 88.0643 84.3424 88.5569 83.8616C89.0495 83.3809 89.3263 82.7284 89.3263 82.0484V69.2279C89.3263 68.548 89.0495 67.8955 88.5569 67.4147C88.0643 66.934 87.3958 66.6638 86.6991 66.6638ZM84.0719 79.4843H78.8175V71.792H84.0719V79.4843Z" fill="white"/>
<path d="M99.8337 94.8718V25.641C99.8337 24.9611 99.5569 24.3086 99.0643 23.8278C98.5717 23.3471 97.9031 23.0769 97.2065 23.0769H68.3073V2.5641C68.3073 1.88416 68.0305 1.23168 67.5379 0.750916C67.0453 0.270154 66.3767 0 65.6801 0H2.62723C1.17641 0 2.14323e-05 1.14813 2.14323e-05 2.5641V94.8718L0 97.3493V100H99.8337V97.5841V94.8718ZM94.5793 28.2051V33.3333H68.3073V28.2051H94.5793ZM5.25443 5.1282H63.0529V10.2564H5.25443V5.1282ZM5.25443 15.3846H63.0529V94.8718H47.2897V76.9231C47.2897 74.8832 46.4593 72.9257 44.9815 71.4837C43.5037 70.0416 41.498 69.2309 39.4082 69.2309H26.2722C24.1822 69.2309 22.1765 70.0413 20.6989 71.4837C19.2214 72.926 18.3907 74.8835 18.3907 76.9231V94.8718H5.25473L5.25443 15.3846ZM23.6448 94.8718V76.9231C23.6448 75.5071 24.8212 74.359 26.272 74.359H39.4081C40.1047 74.359 40.7733 74.6291 41.2659 75.1099C41.7585 75.5907 42.0353 76.2431 42.0353 76.9231V94.8718H23.6448ZM68.3073 94.8718V38.4615H94.5793V94.8718H68.3073Z" fill="white"/>
</svg>
