<svg width="100" height="100" viewBox="0 0 100 100" fill="none" xmlns="http://www.w3.org/2000/svg">
<path d="M2.20734 67.3293C0.988565 67.3293 3.60899e-05 68.3171 3.60899e-05 69.5366C3.60899e-05 70.7554 0.988604 71.7439 2.20734 71.7439H12.5828V74.1722C12.5828 77.6845 13.9779 81.0537 16.4625 83.5375C18.9463 86.022 22.3154 87.4172 25.8279 87.4172H28.2561V97.7927C28.2561 99.0115 29.2447 100 30.4634 100C31.683 100 32.6707 99.0114 32.6707 97.7927V87.4172H41.28V97.7927H41.2808C41.2808 99.0115 42.2686 100 43.4881 100C44.7069 100 45.6954 99.0114 45.6954 97.7927V87.4172H54.3047V97.7927C54.3047 99.0115 55.2932 100 56.512 100C57.7315 100 58.7193 99.0114 58.7193 97.7927V87.4172H67.3285V97.7927H67.3293C67.3293 99.0115 68.3171 100 69.5366 100C70.7554 100 71.7439 99.0114 71.7439 97.7927V87.4172H74.1722C77.6845 87.4172 81.0537 86.0221 83.5375 83.5375C86.022 81.0537 87.4172 77.6847 87.4172 74.1722V71.7439H97.7927C99.0115 71.7439 100 70.7554 100 69.5366C100 68.3171 99.0114 67.3293 97.7927 67.3293H87.4172V58.7193H97.7927C99.0115 58.7193 100 57.7315 100 56.5119C100 55.2932 99.0114 54.3046 97.7927 54.3046H87.4172V45.6954H97.7927C99.0115 45.6954 100 44.7068 100 43.4881C100 42.2685 99.0114 41.2807 97.7927 41.2807H87.4172V32.6707H97.7927C99.0115 32.6707 100 31.6829 100 30.4634C100 29.2446 99.0114 28.2561 97.7927 28.2561H87.4172V25.8278C87.4172 22.3155 86.0221 18.9463 83.5375 16.4625C81.0537 13.978 77.6847 12.5828 74.1722 12.5828H71.7439V2.20731C71.7439 0.988528 70.7554 0 69.5366 0C68.3171 0 67.3293 0.988568 67.3293 2.20731V12.5828H58.7192V2.20731C58.7192 0.988528 57.7315 0 56.5119 0C55.2932 0 54.3046 0.988568 54.3046 2.20731V12.5828H45.6954V2.20731C45.6954 0.988528 44.7068 0 43.4881 0C42.2685 0 41.2807 0.988568 41.2807 2.20731V12.5828H32.6707V2.20731C32.6707 0.988528 31.6829 0 30.4634 0C29.2446 0 28.2561 0.988568 28.2561 2.20731V12.5828H25.8278C22.3155 12.5828 18.9463 13.9779 16.4625 16.4625C13.978 18.9463 12.5828 22.3153 12.5828 25.8278V28.2561H2.20731C0.988528 28.2561 0 29.2446 0 30.4634C0 31.6829 0.988568 32.6707 2.20731 32.6707H12.5828V41.28L2.20731 41.2807C0.988528 41.2807 0 42.2685 0 43.488C0 44.7068 0.988568 45.6953 2.20731 45.6953H12.5828V54.3046H2.20731C0.988528 54.3046 0 55.2932 0 56.5119C0 57.7315 0.988568 58.7192 2.20731 58.7192H12.5828V67.3285L2.20734 67.3293ZM16.9974 25.8282C16.9974 23.4861 17.9283 21.2403 19.5836 19.5841C21.2396 17.9288 23.4855 16.998 25.8277 16.998H74.172C76.5142 16.998 78.7599 17.9288 80.4161 19.5841C82.0714 21.2402 83.0022 23.4861 83.0022 25.8282V74.1726C83.0022 76.5147 82.0714 78.7605 80.4161 80.4167C78.76 82.072 76.5142 83.0028 74.172 83.0028H25.8277C23.4855 83.0028 21.2398 82.072 19.5836 80.4167C17.9283 78.7606 16.9974 76.5147 16.9974 74.1726V25.8282Z" fill="white"/>
<path d="M27.0395 55.2991L30.24 55.7402L30.2407 55.741C30.6288 57.1984 31.1839 58.6058 31.896 59.9347L30.0198 62.4731V62.4739C29.4477 63.3901 29.5848 64.5811 30.3508 65.3434L34.6555 69.6481C35.4177 70.4141 36.6087 70.5512 37.525 69.9791L40.0642 68.1029C41.3931 68.815 42.8006 69.3701 44.2579 69.7582L44.6991 72.9587L44.6998 72.9594C44.9123 74.0034 45.8416 74.7472 46.9072 74.7256H53.088C54.1535 74.7472 55.0828 74.0034 55.2953 72.9594L55.7364 69.7589L55.7372 69.7582C57.1947 69.3701 58.6021 68.815 59.9309 68.1029L62.4693 69.9791H62.4701C63.3863 70.5512 64.5773 70.4141 65.3397 69.6481L69.6443 65.3434C70.4104 64.5812 70.5474 63.3901 69.9754 62.4739L68.0991 59.9347C68.8113 58.6058 69.3664 57.1983 69.7544 55.741L72.9549 55.2998L72.9557 55.2991C73.9997 55.0866 74.7434 54.1573 74.7218 53.0917V46.9109C74.7434 45.8454 73.9996 44.9161 72.9557 44.7036L69.7552 44.2624L69.7544 44.2617C69.3663 42.8042 68.8112 41.3968 68.0991 40.068L69.9754 37.5296V37.5288C70.5474 36.6126 70.4104 35.4216 69.6443 34.6592L65.3397 30.3546C64.5774 29.5885 63.3864 29.4515 62.4701 30.0235L59.9309 31.8998C58.602 31.1876 57.1945 30.6325 55.7372 30.2445L55.296 27.044L55.2953 27.0432C55.0828 25.9992 54.1535 25.2555 53.088 25.2771H46.9071C45.8416 25.2555 44.9123 25.9993 44.6998 27.0432L44.2587 30.2437L44.2579 30.2445C42.8005 30.6326 41.3931 31.1877 40.0642 31.8998L37.5258 30.0235H37.525C36.6088 29.4515 35.4178 29.5885 34.6555 30.3546L30.3508 34.6592C29.5848 35.4215 29.4477 36.6125 30.0198 37.5288L31.896 40.068C31.1839 41.3969 30.6288 42.8043 30.2407 44.2617L27.0402 44.7029L27.0395 44.7036C25.9955 44.9161 25.2517 45.8454 25.2733 46.9109V53.0918C25.2517 54.1573 25.9955 55.0866 27.0395 55.2991V55.2991ZM29.6887 48.7871L32.3379 48.346H32.3371C33.2348 48.1789 33.9362 47.4767 34.1033 46.5798C34.5491 44.6535 35.3344 42.8227 36.4216 41.1712C36.8735 40.4128 36.8304 39.4574 36.3107 38.7429L34.7655 36.4247L36.4208 34.7693L38.7391 36.3146C39.4535 36.8342 40.409 36.8774 41.1673 36.4254C42.8188 35.3383 44.6497 34.553 46.5759 34.1072C47.4729 33.9401 48.175 33.2387 48.3421 32.341L48.7833 29.6918H51.2115L51.6527 32.341C51.8198 33.2387 52.5219 33.9401 53.4189 34.1072C55.3452 34.5529 57.176 35.3382 58.8274 36.4254C59.5858 36.8774 60.5413 36.8342 61.2557 36.3146L63.574 34.7693L65.2293 36.4247L63.6841 38.7429C63.1644 39.4574 63.1213 40.4129 63.5732 41.1712C64.6603 42.8227 65.4456 44.6535 65.8915 46.5798C66.0586 47.4767 66.7599 48.1789 67.6577 48.346L70.3069 48.7871V51.2154L67.6577 51.6565C66.7599 51.8236 66.0585 52.5258 65.8915 53.4227C65.4457 55.3491 64.6604 57.1798 63.5732 58.8313C63.1213 59.5897 63.1644 60.5451 63.6841 61.2596L65.2293 63.5778L63.574 65.2332L61.2557 63.6879C60.5412 63.1683 59.5857 63.1251 58.8274 63.5771C57.176 64.6642 55.3451 65.4495 53.4189 65.8953C52.5219 66.0624 51.8197 66.7638 51.6527 67.6615L51.2115 70.3107L48.7833 70.31L48.3421 67.6614C48.175 66.7636 47.4728 66.0622 46.5759 65.8952C44.6496 65.4494 42.8188 64.6641 41.1673 63.5769C40.4089 63.1249 39.4535 63.1681 38.7391 63.6878L36.4208 65.233L34.7655 63.5777L36.3107 61.2594C36.8304 60.5449 36.8735 59.5894 36.4216 58.8311C35.3344 57.1797 34.5491 55.3488 34.1033 53.4225C33.9362 52.5256 33.2348 51.8234 32.3371 51.6564L29.6879 51.2152L29.6887 48.7871Z" fill="white"/>
<path d="M50.0032 59.6026C52.5501 59.6026 54.9922 58.5909 56.7931 56.79C58.594 54.9891 59.6057 52.5471 59.6057 50.0002C59.6057 47.4533 58.594 45.0112 56.7931 43.2103C54.9921 41.4094 52.5501 40.3977 50.0032 40.3977C47.4563 40.3977 45.0142 41.4094 43.2134 43.2103C41.4125 45.0112 40.4008 47.4533 40.4008 50.0002C40.4008 52.5471 41.4124 54.9891 43.2134 56.79C45.0143 58.5909 47.4563 59.6026 50.0032 59.6026ZM50.0032 44.8125C51.3791 44.8125 52.6987 45.3592 53.671 46.3323C54.6442 47.3047 55.1908 48.6244 55.1908 50.0001C55.1908 51.3759 54.6442 52.6957 53.671 53.6679C52.6986 54.6411 51.379 55.1878 50.0032 55.1878C48.6275 55.1878 47.3077 54.6411 46.3354 53.6679C45.3622 52.6955 44.8156 51.3759 44.8156 50.0001C44.8156 48.6244 45.3622 47.3046 46.3354 46.3323C47.3078 45.3592 48.6275 44.8125 50.0032 44.8125V44.8125Z" fill="white"/>
</svg>
