<svg width="383" height="112" viewBox="0 0 383 112" fill="none" xmlns="http://www.w3.org/2000/svg">
<g clip-path="url(#clip0_551_178)">
<path d="M38.4884 27.0071V111.735C16.9564 109.617 0 91.8771 0 70.1655V27.0071L19.1096 45.8061L38.4884 27.0071Z" fill="white"/>
<path d="M85.0509 18.7991V69.9007C85.0509 91.6123 68.0945 109.617 46.5625 111.47V18.7991L65.9413 0L85.0509 18.7991ZM111.428 45.0118V27.2719H120.579V44.747C120.579 50.3073 123.001 52.4255 126.769 52.4255C130.537 52.4255 132.96 50.3073 132.96 44.747V27.2719H142.111V45.0118C142.111 54.5437 136.458 59.8393 126.769 59.8393C117.08 59.8393 111.428 54.279 111.428 45.0118ZM174.409 46.8653C174.409 54.8085 169.026 59.5745 162.028 59.5745C159.067 59.5745 156.645 58.7801 155.03 56.9267V68.0473H146.148V34.4208H154.492V36.8038C156.106 34.9504 158.529 33.8913 162.028 33.8913C169.026 33.8913 174.409 38.922 174.409 46.8653ZM165.527 46.8653C165.527 43.1584 163.104 41.0402 160.144 41.0402C157.183 41.0402 154.761 43.1584 154.761 46.8653C154.761 50.5721 157.183 52.6903 160.144 52.6903C163.104 52.6903 165.527 50.5721 165.527 46.8653ZM176.831 46.6005C176.831 39.1868 182.752 33.8913 191.096 33.8913C196.748 33.8913 201.054 36.2742 202.938 40.7754L196.21 44.2175C195.133 41.8345 193.249 40.7754 191.096 40.7754C188.135 40.7754 185.713 42.8936 185.713 46.6005C185.713 50.3073 188.135 52.4255 191.096 52.4255C193.249 52.4255 194.864 51.3664 196.21 48.9835L202.938 52.4255C201.324 56.6619 196.748 59.3097 191.096 59.3097C182.752 59.5745 176.831 54.279 176.831 46.6005Z" fill="white"/>
<path d="M232.276 34.4208L221.51 60.104C218.818 66.4586 215.05 68.3121 210.206 68.3121C207.514 68.3121 204.553 67.5177 202.939 66.1939L205.899 60.104C206.976 60.8984 208.321 61.6927 209.667 61.6927C211.282 61.6927 212.359 61.1631 213.166 59.5745L202.4 34.6856H211.551L217.742 49.7778L223.932 34.6856H232.276V34.4208ZM232.276 46.6005C232.276 39.1868 238.197 33.8913 246.541 33.8913C252.193 33.8913 256.499 36.2742 258.383 40.7754L251.655 44.2175C250.578 41.8345 248.694 40.7754 246.541 40.7754C243.58 40.7754 241.158 42.8936 241.158 46.6005C241.158 50.3073 243.58 52.4255 246.541 52.4255C248.694 52.4255 250.309 51.3664 251.655 48.9835L258.383 52.4255C256.768 56.662 252.193 59.3097 246.541 59.3097C238.466 59.5745 232.276 54.279 232.276 46.6005ZM261.882 50.5721V25.4185H270.764V50.0426C270.764 51.896 271.841 52.9551 273.456 52.9551C274.263 52.9551 275.071 52.6903 275.34 52.4255L275.609 59.0449C274.263 59.5745 272.917 59.5745 271.572 59.5745C265.381 59.5745 261.882 56.3972 261.882 50.5721ZM303.87 48.9835H285.567C286.375 51.3664 288.528 52.9551 291.758 52.9551C294.18 52.9551 295.795 52.1608 297.41 50.8369L301.986 55.6029C299.563 58.2506 296.064 59.5745 291.22 59.5745C282.338 59.5745 276.416 54.279 276.416 46.8653C276.416 39.4516 282.338 34.156 290.143 34.156C297.679 34.156 303.6 38.922 303.6 46.8653C303.87 47.3948 303.87 48.1891 303.87 48.9835ZM285.567 44.4823H295.795C295.257 41.8345 293.373 40.2459 290.681 40.2459C287.99 40.2459 286.106 41.8345 285.567 44.4823ZM139.15 78.1088L128.384 103.792C125.693 110.147 121.924 112 117.08 112C114.388 112 111.428 111.206 109.813 109.882L112.773 103.792C113.85 104.586 115.196 105.381 116.541 105.381C118.156 105.381 119.233 104.851 120.04 103.262L109.274 78.3735H118.426L124.616 93.4657L130.806 78.3735H139.15V78.1088ZM139.15 90.2884C139.15 82.8747 145.071 77.5792 153.415 77.5792C161.759 77.5792 167.68 82.8747 167.68 90.2884C167.68 97.7021 161.759 102.998 153.415 102.998C145.071 103.262 139.15 97.9669 139.15 90.2884ZM158.529 90.2884C158.529 86.5816 156.376 84.4634 153.146 84.4634C150.185 84.4634 147.763 86.5816 147.763 90.2884C147.763 93.9953 150.185 96.1135 153.146 96.1135C156.376 96.3783 158.529 94.2601 158.529 90.2884ZM198.094 78.1088V102.733H189.75V100.085C187.866 102.203 185.175 103.262 182.214 103.262C176.024 103.262 171.448 99.8204 171.448 91.8771V78.1088H180.33V90.5532C180.33 94.2601 181.945 95.8487 184.367 95.8487C187.059 95.8487 189.212 94.2601 189.212 90.0237V78.1088H198.094ZM220.433 77.5792V85.2577C219.626 85.2577 219.087 84.9929 218.549 84.9929C215.05 84.9929 212.628 86.8464 212.628 91.0828V102.468H203.746V77.844H212.09V80.7565C213.704 78.9031 216.665 77.5792 220.433 77.5792ZM279.108 78.1088L270.226 102.733H261.613L256.768 89.2293L251.924 102.733H243.311L234.429 78.1088H242.773L247.886 92.9362L253.269 78.1088H261.075L266.189 93.201L271.572 78.1088H279.108ZM307.638 78.1088V102.733H299.294V100.35C297.679 102.203 295.257 103.262 291.758 103.262C285.029 103.262 279.377 98.2317 279.377 90.5532C279.377 82.6099 284.76 77.844 291.758 77.844C294.719 77.844 297.141 78.6383 298.756 80.4917V78.3735H307.638V78.1088ZM299.025 90.2884C299.025 86.5816 296.603 84.4634 293.642 84.4634C290.681 84.4634 288.259 86.5816 288.259 90.2884C288.259 93.9953 290.681 96.1135 293.642 96.1135C296.603 96.1135 299.025 94.2601 299.025 90.2884ZM311.406 100.615L314.097 94.7896C316.52 96.1135 319.749 97.1726 322.71 97.1726C325.671 97.1726 326.747 96.643 326.747 95.5839C326.747 92.1419 311.944 96.1135 311.944 86.052C311.944 81.2861 316.251 77.844 324.056 77.844C327.555 77.844 331.592 78.6383 334.014 79.9622L331.323 85.7873C328.901 84.4634 326.209 83.9338 324.056 83.9338C321.095 83.9338 320.019 84.7282 320.019 85.7873C320.019 89.2293 334.822 85.5225 334.822 95.3192C334.822 99.8204 330.515 103.527 322.441 103.527C318.135 103.262 313.828 102.203 311.406 100.615ZM354.739 101.674C353.124 102.733 350.971 102.998 348.548 102.998C342.089 102.998 338.321 99.8204 338.321 93.4657V72.2837H347.203V78.6383H352.855V84.9929H347.203V93.201C347.203 95.0544 348.279 96.1135 349.894 96.1135C350.971 96.1135 351.778 95.8487 352.586 95.3192L354.739 101.674ZM383 92.6714H364.697C365.505 95.0544 367.658 96.643 370.888 96.643C373.31 96.643 374.925 95.8487 376.54 94.5248L381.116 99.2908C378.693 101.939 375.194 103.262 370.35 103.262C361.468 103.262 355.546 97.9669 355.546 90.5532C355.546 83.1395 361.468 77.844 369.273 77.844C376.809 77.844 382.73 82.6099 382.73 90.5532C383 91.0828 383 91.8771 383 92.6714ZM364.697 88.1702H374.925C374.387 85.5225 372.503 83.9338 369.811 83.9338C367.12 83.9338 365.236 85.5225 364.697 88.1702Z" fill="white"/>
</g>
<defs>
<clipPath id="clip0_551_178">
<rect width="383" height="112" fill="white"/>
</clipPath>
</defs>
</svg>
