<svg version="1.1" id="Layer_1" xmlns="http://www.w3.org/2000/svg" x="0" y="0" viewBox="0 0 142.3 42.3" xml:space="preserve"><style>.st1{fill:#00883e}</style><path d="M14.3 10.2v32C6.3 41.4 0 34.7 0 26.5V10.2l7.1 7.1 7.2-7.1z" fill="#90be96"/><path class="st1" d="M31.6 7.1v19.3c0 8.2-6.3 15-14.3 15.7v-35L24.5 0l7.1 7.1zm9.8 9.9v-6.7h3.4v6.6c0 2.1.9 2.9 2.3 2.9s2.3-.8 2.3-2.9v-6.6h3.4V17c0 3.6-2.1 5.6-5.7 5.6s-5.7-2.1-5.7-5.6zm23.4.7c0 3-2 4.8-4.6 4.8-1.1 0-2-.3-2.6-1v4.2h-3.3V13h3.1v.9c.6-.7 1.5-1.1 2.8-1.1 2.6 0 4.6 1.9 4.6 4.9zm-3.3 0c0-1.4-.9-2.2-2-2.2s-2 .8-2 2.2.9 2.2 2 2.2 2-.8 2-2.2zm4.2-.1c0-2.8 2.2-4.8 5.3-4.8 2.1 0 3.7.9 4.4 2.6l-2.5 1.3c-.4-.9-1.1-1.3-1.9-1.3-1.1 0-2 .8-2 2.2 0 1.4.9 2.2 2 2.2.8 0 1.4-.4 1.9-1.3l2.5 1.3c-.6 1.6-2.3 2.6-4.4 2.6-3.1.1-5.3-1.9-5.3-4.8z"/><path class="st1" d="M86.3 13l-4 9.7c-1 2.4-2.4 3.1-4.2 3.1-1 0-2.1-.3-2.7-.8l1.1-2.3c.4.3.9.6 1.4.6.6 0 1-.2 1.3-.8l-4-9.4h3.4l2.3 5.7 2.3-5.7h3.1zm0 4.6c0-2.8 2.2-4.8 5.3-4.8 2.1 0 3.7.9 4.4 2.6l-2.5 1.3c-.4-.9-1.1-1.3-1.9-1.3-1.1 0-2 .8-2 2.2 0 1.4.9 2.2 2 2.2.8 0 1.4-.4 1.9-1.3l2.5 1.3c-.6 1.6-2.3 2.6-4.4 2.6-3 .1-5.3-1.9-5.3-4.8zm11 1.5V9.6h3.3v9.3c0 .7.4 1.1 1 1.1.3 0 .6-.1.7-.2l.1 2.5c-.5.2-1 .2-1.5.2-2.3 0-3.6-1.2-3.6-3.4zm15.6-.6h-6.8c.3.9 1.1 1.5 2.3 1.5.9 0 1.5-.3 2.1-.8l1.7 1.8c-.9 1-2.2 1.5-4 1.5-3.3 0-5.5-2-5.5-4.8s2.2-4.8 5.1-4.8c2.8 0 5 1.8 5 4.8.1.2.1.5.1.8zm-6.8-1.7h3.8c-.2-1-.9-1.6-1.9-1.6s-1.7.6-1.9 1.6zM51.7 29.5l-4 9.7c-1 2.4-2.4 3.1-4.2 3.1-1 0-2.1-.3-2.7-.8l1.1-2.3c.4.3.9.6 1.4.6.6 0 1-.2 1.3-.8l-4-9.4H44l2.3 5.7 2.3-5.7h3.1zm0 4.6c0-2.8 2.2-4.8 5.3-4.8 3.1 0 5.3 2 5.3 4.8s-2.2 4.8-5.3 4.8c-3.1.1-5.3-1.9-5.3-4.8zm7.2 0c0-1.4-.8-2.2-2-2.2-1.1 0-2 .8-2 2.2 0 1.4.9 2.2 2 2.2 1.2.1 2-.7 2-2.2zm14.7-4.6v9.3h-3.1v-1c-.7.8-1.7 1.2-2.8 1.2-2.3 0-4-1.3-4-4.3v-5.2H67v4.7c0 1.4.6 2 1.5 2 1 0 1.8-.6 1.8-2.2v-4.5h3.3zm8.3-.2v2.9c-.3 0-.5-.1-.7-.1-1.3 0-2.2.7-2.2 2.3v4.3h-3.3v-9.3h3.1v1.1c.6-.7 1.7-1.2 3.1-1.2zm21.8.2l-3.3 9.3h-3.2l-1.8-5.1-1.8 5.1h-3.2l-3.3-9.3h3.1l1.9 5.6 2-5.6H97l1.9 5.7 2-5.7h2.8zm10.6 0v9.3h-3.1v-.9c-.6.7-1.5 1.1-2.8 1.1-2.5 0-4.6-1.9-4.6-4.8 0-3 2-4.8 4.6-4.8 1.1 0 2 .3 2.6 1v-.8h3.3zm-3.2 4.6c0-1.4-.9-2.2-2-2.2s-2 .8-2 2.2c0 1.4.9 2.2 2 2.2s2-.7 2-2.2zm4.6 3.9l1-2.2c.9.5 2.1.9 3.2.9s1.5-.2 1.5-.6c0-1.3-5.5.2-5.5-3.6 0-1.8 1.6-3.1 4.5-3.1 1.3 0 2.8.3 3.7.8l-1 2.2c-.9-.5-1.9-.7-2.7-.7-1.1 0-1.5.3-1.5.7 0 1.3 5.5-.1 5.5 3.6 0 1.7-1.6 3.1-4.6 3.1-1.6-.1-3.2-.5-4.1-1.1zm16.1.4c-.6.4-1.4.5-2.3.5-2.4 0-3.8-1.2-3.8-3.6v-8h3.3v2.4h2.1v2.4H129v3.1c0 .7.4 1.1 1 1.1.4 0 .7-.1 1-.3l.8 2.4zm10.5-3.4h-6.8c.3.9 1.1 1.5 2.3 1.5.9 0 1.5-.3 2.1-.8l1.7 1.8c-.9 1-2.2 1.5-4 1.5-3.3 0-5.5-2-5.5-4.8s2.2-4.8 5.1-4.8c2.8 0 5 1.8 5 4.8.1.2.1.5.1.8zm-6.8-1.7h3.8c-.2-1-.9-1.6-1.9-1.6s-1.7.6-1.9 1.6z"/></svg>