<svg width="1920" height="299" viewBox="0 0 1920 299" fill="none" xmlns="http://www.w3.org/2000/svg">
<path d="M-0.491923 269.757L106.203 262.516C212.898 255.414 426.288 240.932 639.681 238.114C853.073 235.296 1066.47 244.143 1279.86 256.045C1493.26 268.086 1706.65 283.32 1813.35 290.938L1920.05 298.555L1919.99 -5.7323e-07L1813.3 0.0201682C1706.6 0.0403369 1493.21 0.0806745 1279.81 0.121012C1066.42 0.16135 853.028 0.201687 639.636 0.242025C426.243 0.282362 212.85 0.3227 106.154 0.342868L-0.542847 0.363037L-0.491923 269.757Z" fill="#0A594C"/>
<path d="M-0.506098 194.771L106.191 200.305C212.889 205.84 426.284 216.908 639.677 219.923C853.071 222.799 1066.46 217.759 1279.86 221.329C1493.25 225.038 1706.64 237.496 1813.34 243.724L1920.04 249.953L1919.99 -5.7323e-07L1813.3 0.0201682C1706.6 0.0403369 1493.21 0.0806745 1279.81 0.121012C1066.42 0.16135 853.028 0.201687 639.636 0.242025C426.243 0.282362 212.85 0.3227 106.154 0.342868L-0.542847 0.363037L-0.506098 194.771Z" fill="#1A685B"/>
<path d="M-0.506623 191.994L106.189 186.419C212.884 180.844 426.275 169.695 639.666 162.711C853.058 155.728 1066.45 152.91 1279.84 144.538C1493.23 136.166 1706.62 122.24 1813.32 115.276L1920.01 108.313L1919.99 -5.7323e-07L1813.3 0.0201682C1706.6 0.0403369 1493.21 0.0806745 1279.81 0.121012C1066.42 0.16135 853.028 0.201687 639.636 0.242025C426.243 0.282362 212.85 0.3227 106.154 0.342868L-0.542847 0.363037L-0.506623 191.994Z" fill="#28786A"/>
<path d="M-0.527885 79.5148L106.168 78.106C212.864 76.6972 426.257 73.8796 639.65 78.6995C853.044 83.5193 1066.44 95.9766 1279.83 92.7425C1493.22 89.3694 1706.61 70.4437 1813.31 60.842L1920 51.3792L1919.99 -5.7323e-07L1813.3 0.0201682C1706.6 0.0403369 1493.21 0.0806745 1279.81 0.121012C1066.42 0.16135 853.028 0.201687 639.636 0.242025C426.243 0.282362 212.85 0.3227 106.154 0.342868L-0.542847 0.363037L-0.527885 79.5148Z" fill="#35887A"/>
<path d="M-0.533922 47.5764L106.163 47.9728C212.859 48.5081 426.252 49.3009 639.645 49.9549C853.038 50.6089 1066.43 51.124 1279.82 52.6111C1493.22 54.2371 1706.61 56.9741 1813.31 58.3425L1920 59.711L1919.99 -5.7323e-07L1813.3 0.0201682C1706.6 0.0403369 1493.21 0.0806745 1279.81 0.121012C1066.42 0.16135 853.028 0.201687 639.636 0.242025C426.243 0.282362 212.85 0.3227 106.154 0.342868L-0.542847 0.363037L-0.533922 47.5764Z" fill="#42998A"/>
</svg>
