<svg width="1920" height="228" viewBox="0 0 1920 228" fill="none" xmlns="http://www.w3.org/2000/svg">
<rect width="1920" height="228" fill="#28786A"/>
<path d="M0 205.73L106.667 200.216C213.333 194.807 426.667 183.779 640 181.658C853.333 179.537 1066.67 186.324 1280 195.444C1493.33 204.67 1706.67 216.335 1813.33 222.167L1920 228V0H1813.33C1706.67 0 1493.33 0 1280 0C1066.67 0 853.333 0 640 0C426.667 0 213.333 0 106.667 0H0V205.73Z" fill="#0A594C"/>
<path d="M0 148.465L106.667 152.707C213.333 156.949 426.667 165.433 640 167.766C853.333 169.993 1066.67 166.175 1280 168.932C1493.33 171.795 1706.67 181.34 1813.33 186.112L1920 190.884V0H1813.33C1706.67 0 1493.33 0 1280 0C1066.67 0 853.333 0 640 0C426.667 0 213.333 0 106.667 0H0V148.465Z" fill="#1A685B"/>
<path d="M0 146.344L106.667 142.102C213.333 137.86 426.667 129.377 640 124.074C853.333 118.772 1066.67 116.651 1280 110.288C1493.33 103.926 1706.67 93.3209 1813.33 88.0186L1920 82.7163V0H1813.33C1706.67 0 1493.33 0 1280 0C1066.67 0 853.333 0 640 0C426.667 0 213.333 0 106.667 0H0V146.344Z" fill="#28786A"/>
<path d="M0 60.4465L106.667 59.386C213.333 58.3256 426.667 56.2047 640 59.9163C853.333 63.6279 1066.67 73.1721 1280 70.733C1493.33 68.1879 1706.67 53.7656 1813.33 46.4484L1920 39.2372V0H1813.33C1706.67 0 1493.33 0 1280 0C1066.67 0 853.333 0 640 0C426.667 0 213.333 0 106.667 0H0V60.4465Z" fill="#35887A"/>
<path d="M0 36.0558L106.667 36.374C213.333 36.7981 426.667 37.4344 640 37.9646C853.333 38.4949 1066.67 38.9191 1280 40.0856C1493.33 41.3581 1706.67 43.4791 1813.33 44.5395L1920 45.6V0H1813.33C1706.67 0 1493.33 0 1280 0C1066.67 0 853.333 0 640 0C426.667 0 213.333 0 106.667 0H0V36.0558Z" fill="#42998A"/>
</svg>
