<svg id="visual" viewBox="0 0 900 450" width="900" height="450" xmlns="http://www.w3.org/2000/svg" xmlns:xlink="http://www.w3.org/1999/xlink" version="1.1"><path d="M0 254L50 259.2C100 264.3 200 274.7 300 276.7C400 278.7 500 272.3 600 263.7C700 255 800 244 850 238.5L900 233L900 451L850 451C800 451 700 451 600 451C500 451 400 451 300 451C200 451 100 451 50 451L0 451Z" fill="#0a594c"></path><path d="M0 308L50 304C100 300 200 292 300 289.8C400 287.7 500 291.3 600 288.7C700 286 800 277 850 272.5L900 268L900 451L850 451C800 451 700 451 600 451C500 451 400 451 300 451C200 451 100 451 50 451L0 451Z" fill="#1a685b"></path><path d="M0 310L50 314C100 318 200 326 300 331C400 336 500 338 600 344C700 350 800 360 850 365L900 370L900 451L850 451C800 451 700 451 600 451C500 451 400 451 300 451C200 451 100 451 50 451L0 451Z" fill="#28786a"></path><path d="M0 391L50 392C100 393 200 395 300 391.5C400 388 500 379 600 381.3C700 383.7 800 397.3 850 404.2L900 411L900 451L850 451C800 451 700 451 600 451C500 451 400 451 300 451C200 451 100 451 50 451L0 451Z" fill="#35887a"></path><path d="M0 414L50 413.7C100 413.3 200 412.7 300 412.2C400 411.7 500 411.3 600 410.2C700 409 800 407 850 406L900 405L900 451L850 451C800 451 700 451 600 451C500 451 400 451 300 451C200 451 100 451 50 451L0 451Z" fill="#42998a"></path></svg>