<svg id="visual" viewBox="0 0 900 450" width="900" height="450" xmlns="http://www.w3.org/2000/svg" xmlns:xlink="http://www.w3.org/1999/xlink" version="1.1"><path d="M0 194L50 188.8C100 183.7 200 173.3 300 171.3C400 169.3 500 175.7 600 184.3C700 193 800 204 850 209.5L900 215L900 0L850 0C800 0 700 0 600 0C500 0 400 0 300 0C200 0 100 0 50 0L0 0Z" fill="#0a594c"></path><path d="M0 140L50 144C100 148 200 156 300 158.2C400 160.3 500 156.7 600 159.3C700 162 800 171 850 175.5L900 180L900 0L850 0C800 0 700 0 600 0C500 0 400 0 300 0C200 0 100 0 50 0L0 0Z" fill="#1a685b"></path><path d="M0 138L50 134C100 130 200 122 300 117C400 112 500 110 600 104C700 98 800 88 850 83L900 78L900 0L850 0C800 0 700 0 600 0C500 0 400 0 300 0C200 0 100 0 50 0L0 0Z" fill="#28786a"></path><path d="M0 57L50 56C100 55 200 53 300 56.5C400 60 500 69 600 66.7C700 64.3 800 50.7 850 43.8L900 37L900 0L850 0C800 0 700 0 600 0C500 0 400 0 300 0C200 0 100 0 50 0L0 0Z" fill="#35887a"></path><path d="M0 34L50 34.3C100 34.7 200 35.3 300 35.8C400 36.3 500 36.7 600 37.8C700 39 800 41 850 42L900 43L900 0L850 0C800 0 700 0 600 0C500 0 400 0 300 0C200 0 100 0 50 0L0 0Z" fill="#42998a"></path></svg>