<svg width="96" height="96" viewBox="0 0 96 96" fill="none" xmlns="http://www.w3.org/2000/svg">
<g clip-path="url(#clip0_576_8)">
<path d="M59.3393 22.2877L60.0353 22.5313L60.7229 22.2648L81.9104 14.0517L82 14.0349L82 74.4675C81.9874 74.4767 81.9646 74.4903 81.9275 74.5026L81.9215 74.5047L62 81.2158L62 79.5L62 25L62 23.5485L60.62 23.0985L37.62 15.5985L35 14.7442L35 17.5L35 71L35 72.3931L36.3067 72.876L59.3067 81.376L60.3643 81.7668L60.0124 81.8854L36.6607 73.7123L35.9647 73.4687L35.2771 73.7352L14.0896 81.9483L14 81.9651L14 21.5325C14.0126 21.5233 14.0354 21.5097 14.0725 21.4974L14.0725 21.4974L14.0785 21.4953L35.9876 14.1146L59.3393 22.2877Z" stroke="#777474" stroke-width="4"/>
</g>
<defs>
<clipPath id="clip0_576_8">
<rect width="96" height="96" fill="white"/>
</clipPath>
</defs>
</svg>
