<svg width="540" height="533" viewBox="0 0 540 533" fill="none" xmlns="http://www.w3.org/2000/svg">
<g clip-path="url(#clip0_283_4338)">
<path d="M438.862 499.707C361.851 544.099 235.829 544.099 158.824 499.707L57.7548 440.942C-19.2503 396.56 -19.2503 323.909 57.7548 279.521L101.143 254.514C178.153 210.12 304.176 210.12 381.181 254.514L482.241 313.279C559.25 357.67 559.25 430.31 482.241 474.701L438.862 499.707Z" fill="#F5FAFB"/>
<g style="mix-blend-mode:multiply">
<path d="M410.849 459.244L354.614 427.648L354.575 427.628L343.576 421.278C342.305 420.556 340.973 419.946 339.596 419.454L255.606 372.07C231.704 358.29 194.931 356.944 173.896 369.068C171.288 370.547 168.872 372.339 166.7 374.404L150.535 365.076C141.147 359.661 126.706 359.133 118.444 363.896C110.183 368.66 111.099 376.983 120.489 382.396L201.739 429.315C202.883 429.968 204.07 430.543 205.292 431.034L264.783 463.657C288.688 477.433 325.456 478.787 346.493 466.656C349.209 465.119 351.716 463.241 353.954 461.068L380.796 476.568C390.183 481.979 404.627 482.509 412.886 477.747C421.146 472.986 420.239 464.663 410.849 459.244Z" fill="#E9E9F3"/>
</g>
<path d="M428.625 104.972L341.832 427.792C339.681 435.751 334.443 440.804 328.408 441.772L319.047 443.276C318.239 443.406 317.171 443.581 316.383 443.711L315.04 443.92C313.697 444.131 312.375 444.342 311.029 444.565C310.624 444.633 310.091 444.711 309.686 444.776C307.022 445.197 304.336 445.631 301.666 446.068C307.705 445.099 312.955 440.038 315.088 432.069L401.875 109.255C403.202 104.312 403.14 99.0004 401.959 94.0612L428.543 89.1522C429.886 94.251 430.016 99.8215 428.625 104.972Z" fill="url(#paint0_linear_283_4338)"/>
<path d="M428.543 89.1487L401.959 94.0577C400.227 86.9371 396.168 80.6075 390.574 77.3868L267.447 6.41702C264.212 4.54421 260.875 3.94653 257.761 4.44843C266.672 3.02964 275.583 1.60317 284.493 0.169001C287.63 -0.331124 290.96 0.266538 294.193 2.11984L417.324 73.095C422.738 76.2323 426.733 82.271 428.543 89.1487Z" fill="url(#paint1_linear_283_4338)"/>
<path d="M390.578 77.3904C400.037 82.8421 405.126 97.1808 401.879 109.255L315.086 432.071C311.839 444.147 301.442 449.558 291.982 444.106L168.849 373.127C159.381 367.668 154.283 353.33 157.538 341.254L244.332 18.4377C247.577 6.36381 257.976 0.952883 267.443 6.41169L390.578 77.3904Z" fill="url(#paint2_linear_283_4338)"/>
<path d="M386.638 92.0146L352.222 72.1781L297.923 40.8795L263.511 21.0412C260.393 19.2447 256.869 21.0785 255.805 25.0405L177.887 314.802C176.821 318.766 178.541 323.634 181.66 325.433L304.783 396.404C307.892 398.196 311.427 396.357 312.491 392.393L390.411 102.629C391.477 98.667 389.741 93.8041 386.636 92.0128L386.638 92.0146Z" fill="#E9E9F3"/>
<path d="M243.142 374.424L222.536 362.541C216.497 359.063 210.28 360.945 208.734 366.727C207.189 372.508 210.85 380.09 216.882 383.575L237.488 395.457C243.527 398.944 249.744 397.064 251.302 391.277C252.86 385.49 249.187 377.914 243.14 374.429L243.142 374.424Z" fill="#E9E9F3"/>
<path d="M265.125 130.569L155.754 67.5227C152.523 65.6605 149.182 65.0646 146.059 65.5718L135.362 67.2833C138.487 66.7831 141.826 67.379 145.055 69.2341L254.428 132.28C263.886 137.733 268.975 152.072 265.731 164.132L220.272 333.215C218.131 341.174 212.884 346.238 206.848 347.204L217.547 345.491C223.586 344.524 228.828 339.461 230.969 331.503L276.428 162.42C279.672 150.357 274.584 136.02 265.125 130.569Z" fill="#EFEFEF"/>
<path d="M254.428 132.28C263.886 137.733 268.975 152.072 265.731 164.132L220.272 333.215C217.025 345.291 206.626 350.701 197.169 345.25L87.7958 282.204C78.3281 276.747 73.23 262.408 76.486 250.332L121.946 81.2495C125.189 69.1898 135.588 63.7771 145.055 69.2341L254.428 132.28Z" fill="#F9F8F7"/>
<path d="M126.724 131.18C129.033 130.606 132.481 130.664 137.177 131.867C139.767 122.366 147.885 118.165 155.349 122.467C160.625 125.509 164.163 132.003 164.893 138.916C166.469 138.967 168.005 139.418 169.357 140.227C173.704 142.733 176.544 148.266 176.844 153.986C182.338 158.737 185.662 162.919 186.568 165.677L176.283 159.748L162.541 151.819L155.2 147.587L136.408 136.762L126.724 131.18ZM221.117 150.279C223.904 147.051 228.073 146.136 231.995 148.399C237.541 151.592 240.502 159.927 238.623 167C241.591 169.837 243.488 172.361 244.543 174.383L237.347 170.236L223.377 162.181L217.916 159.035L207.704 153.147L200.066 148.743C201.508 147.903 204.757 148.101 209.392 149.587C211.548 146.709 214.998 145.808 218.231 147.672C219.359 148.339 220.341 149.225 221.119 150.279H221.117ZM250.217 144.091L140.858 81.0562C136.428 78.5024 131.589 81.0207 130.072 86.6693L93.2651 223.563C92.0216 228.185 93.3912 233.474 96.3523 236.655C96.989 237.355 97.7295 237.953 98.5478 238.429L207.908 301.468C212.337 304.021 217.174 301.517 218.693 295.869C217.174 301.517 212.337 304.027 207.908 301.468L98.5478 238.429C97.7295 237.953 96.989 237.355 96.3523 236.655C93.3912 233.474 92.0234 228.185 93.2651 223.563L102.545 189.053L128.594 174.611C130.726 173.432 133.118 173.595 135.229 174.812C137.232 175.966 138.984 178.068 140.025 180.872L151.571 211.857L198.288 190.887C202.606 188.947 207.278 189.457 211.433 191.852C216.108 194.545 220.122 199.625 222.236 206.284L233.344 241.341L255.491 158.971C257.011 153.321 254.642 146.649 250.211 144.095L250.217 144.091Z" fill="#BCE3F2"/>
<path d="M211.44 191.848C207.289 189.454 202.617 188.943 198.295 190.883L151.578 211.853L163.27 243.231C173.844 243.607 185.006 243.914 192.046 247.972C200.336 252.752 212.035 268.012 222.815 280.519L233.349 241.337L222.242 206.281C220.128 199.621 216.113 194.542 211.438 191.848H211.44Z" fill="#7F93E6"/>
<path d="M135.229 174.808C133.118 173.592 130.729 173.429 128.594 174.608L102.545 189.049L93.2651 223.56C92.0216 228.182 93.3912 233.47 96.3523 236.652C96.989 237.351 97.7295 237.95 98.5478 238.425L178.688 284.621L98.5478 238.425C97.7295 237.95 96.989 237.351 96.3523 236.652C93.3912 233.47 92.0234 228.182 93.2651 223.56L97.363 208.326C98.6064 208.918 99.8499 209.592 101.132 210.326C107.882 214.217 115.078 219.885 121.675 225.275C129.015 231.285 135.616 236.98 139.995 239.5C145.219 242.515 154.015 242.882 163.264 243.224L151.573 211.846L140.027 180.861C138.98 178.057 137.229 175.956 135.231 174.801L135.229 174.808Z" fill="#6F86E3"/>
<path d="M192.048 247.972C185.006 243.914 173.844 243.607 163.271 243.231C154.017 242.877 145.221 242.511 140.002 239.507C135.623 236.985 129.022 231.292 121.683 225.282C115.085 219.892 107.889 214.224 101.139 210.333C99.8641 209.599 98.6047 208.925 97.3702 208.333L93.2722 223.567C92.0288 228.189 93.3983 233.477 96.3594 236.659C96.9961 237.359 97.7366 237.957 98.5549 238.432L178.695 284.628L207.916 301.476C212.344 304.03 217.181 301.526 218.7 295.878L222.824 280.537C212.044 268.028 200.345 252.769 192.055 247.99L192.048 247.972Z" fill="#53C275"/>
<path d="M155.349 122.467C147.889 118.165 139.767 122.366 137.177 131.867C132.481 130.664 129.026 130.606 126.724 131.18L136.408 136.762L155.2 147.594L162.541 151.826L176.283 159.748L186.568 165.677C185.662 162.919 182.338 158.737 176.844 153.986C176.544 148.266 173.704 142.733 169.357 140.227C168.005 139.418 166.469 138.967 164.893 138.916C164.163 132 160.63 125.509 155.349 122.467Z" fill="#F5FAFB"/>
<path d="M231.995 148.399C228.073 146.136 223.904 147.051 221.117 150.279C220.34 149.225 219.357 148.338 218.229 147.672C214.996 145.808 211.546 146.709 209.39 149.587C204.756 148.101 201.507 147.903 200.064 148.743L207.702 153.147L217.915 159.035L223.375 162.181L237.346 170.236L244.542 174.383C243.486 172.361 241.589 169.837 238.621 167C240.5 159.92 237.539 151.595 231.994 148.399H231.995Z" fill="#F5FAFB"/>
<path d="M203.526 310.878C202.267 310.152 200.702 310.252 199.064 311.69C198.531 309.003 197.439 307.37 196.178 306.643C191.661 304.037 185.04 313.088 194.924 327.095C208.676 326.711 208.045 313.481 203.526 310.878Z" fill="#FFB048"/>
<path d="M145.189 281.791L99.8729 255.669C96.7235 253.853 93.3237 255.406 92.3236 259.133C91.3235 262.859 93.0839 267.388 96.2315 269.202L141.547 295.324C144.707 297.146 148.109 295.58 149.107 291.866C150.105 288.152 148.347 283.61 145.187 281.791H145.189Z" fill="#ADADAD"/>
<path d="M379.398 120.956C376.041 133.421 365.415 138.939 355.651 133.31C345.887 127.681 340.671 113.026 344.011 100.559C347.35 88.091 358.012 82.5754 367.774 88.2063C377.537 93.8371 382.754 108.488 379.398 120.956Z" fill="#F5FAFB"/>
<path d="M192.465 303.899C190.103 303.899 187.745 303.23 185.457 301.911C176.297 296.638 171.414 282.757 174.57 270.976C176.755 262.862 182.4 257.616 188.959 257.616C191.323 257.616 193.682 258.285 195.971 259.606C205.137 264.882 210.004 278.76 206.841 290.536C204.649 298.655 199.007 303.899 192.465 303.899Z" fill="#FFB048"/>
<path d="M188.952 259.23C191.028 259.23 193.116 259.826 195.157 261.003C203.727 265.937 208.266 278.997 205.282 290.117C203.292 297.509 198.263 302.285 192.474 302.285C190.4 302.285 188.316 301.689 186.273 300.512C177.708 295.579 173.162 282.518 176.148 271.398C178.138 264.006 183.172 259.23 188.968 259.23H188.952ZM188.952 256C181.864 256 175.471 261.408 173.008 270.559C169.67 283.027 174.867 297.677 184.65 303.31C187.245 304.805 189.9 305.515 192.465 305.515C199.548 305.515 205.932 300.107 208.395 290.956C211.753 278.488 206.555 263.837 196.773 258.207C194.176 256.71 191.519 256 188.957 256H188.952Z" fill="#FFB048"/>
<path d="M365.334 97.2919C364.064 96.5577 362.689 97.2919 362.255 98.8881L360.205 106.514L354.228 103.066C352.956 102.336 351.587 103.049 351.15 104.663C350.713 106.276 351.386 108.176 352.656 108.908L358.633 112.354L356.584 119.98C356.154 121.587 356.82 123.493 358.092 124.224C359.364 124.955 360.737 124.224 361.166 122.628L363.218 115.002L369.185 118.443C370.457 119.175 371.839 118.467 372.274 116.846C372.709 115.225 372.029 113.33 370.757 112.59L364.788 109.149L366.838 101.523C367.272 99.9273 366.604 98.0119 365.334 97.2813V97.2919Z" fill="#42998B"/>
<path d="M178.355 285.782L177.749 285.439L181.685 281.578L182.283 281.92L181.855 287.776L181.249 287.43L181.656 282.528L181.617 282.521L178.355 285.782ZM179.43 284.013L181.878 285.406L181.642 285.927L179.197 284.534L179.43 284.013ZM185.758 285.421L185.545 285.896L183.614 284.797L183.827 284.322L185.758 285.421ZM182.768 288.295L184.631 284.149C184.703 283.964 184.834 283.808 185.003 283.707C185.163 283.625 185.343 283.59 185.521 283.608C185.714 283.627 185.9 283.687 186.068 283.784C186.182 283.846 186.289 283.921 186.387 284.006C186.445 284.059 186.499 284.115 186.55 284.175L186.186 284.572L186.083 284.47C186.028 284.419 185.967 284.375 185.901 284.339C185.836 284.292 185.761 284.259 185.682 284.245C185.603 284.23 185.522 284.233 185.444 284.254C185.304 284.324 185.196 284.447 185.142 284.597L183.339 288.608L182.768 288.295ZM189.463 287.53L186.499 290.418L185.941 290.098L186.251 285.702L186.847 286.041L186.532 289.507L186.575 289.515L188.867 287.174L189.463 287.53ZM189.463 292.209C189.245 292.089 189.054 291.924 188.902 291.726C188.761 291.539 188.669 291.319 188.636 291.085C188.602 290.847 188.64 290.603 188.743 290.386C188.812 290.207 188.935 290.054 189.094 289.949C189.233 289.862 189.393 289.819 189.555 289.825C189.733 289.831 189.909 289.864 190.077 289.922C190.258 289.976 190.437 290.042 190.621 290.115L191.181 290.352C191.285 290.404 191.399 290.435 191.515 290.444C191.555 290.443 191.593 290.429 191.625 290.405C191.657 290.381 191.681 290.347 191.694 290.308L191.697 290.288C191.748 290.188 191.78 290.079 191.789 289.967C191.798 289.855 191.786 289.743 191.752 289.636C191.661 289.407 191.489 289.221 191.268 289.117C191.061 288.982 190.816 288.919 190.57 288.94C190.394 288.964 190.226 289.035 190.085 289.145L189.657 288.64C189.828 288.483 190.037 288.377 190.262 288.332C190.473 288.298 190.689 288.309 190.895 288.364C191.098 288.418 191.294 288.498 191.477 288.603C191.611 288.681 191.738 288.771 191.857 288.872C191.999 288.989 192.121 289.13 192.217 289.288C192.324 289.465 192.386 289.666 192.398 289.875C192.406 290.142 192.347 290.408 192.228 290.647L191.156 293.059L190.605 292.744L190.827 292.253L190.796 292.247C190.705 292.314 190.603 292.364 190.496 292.395C190.349 292.438 190.196 292.448 190.046 292.427C189.837 292.396 189.638 292.321 189.46 292.208L189.463 292.209ZM189.773 291.755C189.956 291.869 190.166 291.931 190.381 291.936C190.555 291.941 190.728 291.891 190.875 291.794C191.011 291.705 191.12 291.577 191.187 291.426L191.416 290.913C191.353 290.93 191.287 290.927 191.226 290.904C191.126 290.879 191.027 290.847 190.93 290.811L190.614 290.684C190.514 290.642 190.434 290.606 190.369 290.582C190.227 290.521 190.079 290.476 189.927 290.447C189.8 290.417 189.668 290.423 189.544 290.464C189.483 290.488 189.429 290.525 189.383 290.572C189.338 290.619 189.303 290.676 189.281 290.738C189.236 290.825 189.214 290.923 189.217 291.021C189.219 291.119 189.246 291.215 189.295 291.299C189.409 291.493 189.573 291.651 189.771 291.754L189.773 291.755ZM194.884 289.086L192.7 293.944L192.149 293.631L194.333 288.774L194.884 289.086Z" fill="white"/>
<path d="M184.855 281.4C184.764 281.348 184.692 281.268 184.65 281.17C184.608 281.073 184.598 280.964 184.621 280.86L188.293 268.295C188.304 268.243 188.33 268.195 188.367 268.157C188.403 268.119 188.45 268.092 188.501 268.08C188.547 268.059 188.596 268.05 188.646 268.054C188.695 268.058 188.743 268.075 188.785 268.102L198.306 273.504C198.404 273.558 198.481 273.647 198.52 273.754C198.56 273.861 198.561 273.98 198.523 274.088L193.522 285.936C193.501 285.978 193.472 286.015 193.437 286.044C193.401 286.074 193.36 286.095 193.315 286.107C193.271 286.119 193.225 286.122 193.18 286.114C193.135 286.107 193.092 286.089 193.054 286.064L184.855 281.4ZM188.905 269.028L185.422 280.871L192.972 285.155L197.682 274.005L188.905 269.028Z" fill="white"/>
<path d="M200.037 276.193C199.657 275.973 199.361 275.627 199.199 275.214C199.036 274.814 199.023 274.367 199.163 273.957C199.222 273.775 199.322 273.609 199.455 273.473C199.588 273.336 199.75 273.233 199.929 273.171C200.118 273.113 200.316 273.096 200.512 273.119C200.707 273.143 200.895 273.208 201.064 273.31C201.443 273.533 201.738 273.877 201.902 274.29C202.065 274.69 202.078 275.137 201.939 275.547C201.879 275.729 201.779 275.895 201.646 276.031C201.513 276.168 201.351 276.271 201.172 276.332C200.983 276.39 200.785 276.408 200.59 276.384C200.394 276.36 200.206 276.295 200.037 276.193ZM200.8 274.027C200.713 273.955 200.612 273.904 200.504 273.876C200.395 273.848 200.282 273.845 200.171 273.867C200.069 273.892 199.974 273.943 199.896 274.015C199.817 274.087 199.759 274.179 199.725 274.281C199.688 274.395 199.674 274.515 199.683 274.635C199.692 274.754 199.725 274.871 199.778 274.977C199.883 275.201 200.067 275.375 200.293 275.466C200.4 275.51 200.517 275.524 200.632 275.507C200.747 275.49 200.856 275.443 200.947 275.369C201.036 275.287 201.104 275.184 201.145 275.069C201.185 274.954 201.197 274.831 201.18 274.71C201.147 274.441 201.012 274.195 200.803 274.027L200.8 274.027Z" fill="white"/>
<path d="M198.53 279.639C198.454 279.595 198.391 279.532 198.348 279.454C198.304 279.377 198.282 279.289 198.284 279.2L198.42 276.794C198.419 276.745 198.428 276.696 198.448 276.652C198.468 276.607 198.497 276.567 198.534 276.535C198.569 276.507 198.611 276.487 198.655 276.477C198.699 276.467 198.745 276.467 198.789 276.478L201.019 276.984C201.122 277.011 201.21 277.078 201.265 277.17C201.303 277.21 201.331 277.258 201.348 277.312C201.364 277.365 201.368 277.421 201.359 277.476L201.25 279.874C201.248 279.924 201.236 279.973 201.214 280.017C201.192 280.062 201.16 280.101 201.122 280.132C201.083 280.163 201.038 280.185 200.99 280.196C200.942 280.207 200.893 280.207 200.845 280.197L198.621 279.671L198.53 279.639ZM199.133 277.36L199.056 278.971L200.526 279.298L200.615 277.717L199.133 277.36Z" fill="white"/>
<path d="M197.308 288.42C197.056 288.272 196.84 288.069 196.675 287.826C196.51 287.582 196.4 287.304 196.355 287.011C196.3 286.748 196.319 286.474 196.408 286.221C196.498 285.967 196.655 285.743 196.861 285.574C197.076 285.426 197.329 285.344 197.588 285.337C197.847 285.331 198.102 285.402 198.322 285.54C198.574 285.688 198.79 285.891 198.955 286.135C199.119 286.378 199.229 286.657 199.275 286.949C199.33 287.212 199.311 287.487 199.222 287.741C199.132 287.995 198.975 288.219 198.768 288.388C198.553 288.537 198.301 288.619 198.041 288.625C197.782 288.63 197.527 288.559 197.308 288.42ZM198.07 286.256C197.985 286.205 197.89 286.172 197.791 286.16C197.692 286.148 197.591 286.156 197.496 286.185C197.406 286.217 197.324 286.269 197.256 286.339C197.189 286.408 197.138 286.491 197.108 286.583C197.041 286.791 197.05 287.015 197.133 287.215C197.216 287.425 197.365 287.6 197.558 287.711C197.644 287.763 197.739 287.795 197.838 287.808C197.937 287.82 198.037 287.811 198.133 287.782C198.223 287.75 198.305 287.698 198.372 287.629C198.44 287.56 198.491 287.476 198.521 287.384C198.589 287.177 198.581 286.952 198.496 286.752C198.413 286.542 198.263 286.368 198.07 286.256Z" fill="white"/>
<path d="M200.205 271.025C200.216 270.912 200.193 270.799 200.139 270.701C200.085 270.603 200.003 270.524 199.904 270.474L196.673 269.241L196.786 268.565C196.844 268.269 196.793 267.962 196.644 267.703C196.499 267.43 196.268 267.216 195.988 267.094L192.63 265.854C192.512 265.805 192.384 265.783 192.256 265.789C192.128 265.796 192.002 265.83 191.888 265.891C191.769 265.955 191.667 266.046 191.589 266.157C191.511 266.269 191.46 266.397 191.44 266.532L191.332 267.182L187.895 265.859C187.85 265.84 187.8 265.831 187.751 265.833C187.701 265.835 187.653 265.848 187.609 265.871C187.566 265.897 187.529 265.932 187.502 265.973C187.474 266.015 187.456 266.063 187.448 266.112C187.431 266.209 187.443 266.309 187.483 266.398C187.524 266.486 187.591 266.56 187.675 266.608L187.731 266.64L199.779 271.269C199.825 271.288 199.874 271.297 199.924 271.295C199.973 271.292 200.022 271.278 200.066 271.254C200.108 271.229 200.144 271.194 200.172 271.153C200.2 271.112 200.218 271.065 200.226 271.016L200.205 271.025ZM192.155 266.826C192.177 266.753 192.223 266.69 192.285 266.647C192.315 266.629 192.35 266.619 192.386 266.619C192.421 266.618 192.456 266.628 192.486 266.646L195.844 267.883C195.916 267.918 195.976 267.975 196.014 268.046C196.053 268.118 196.069 268.2 196.06 268.281L195.944 268.977L192.035 267.471L192.155 266.826Z" fill="white"/>
<path d="M187.566 280.889C187.475 280.837 187.404 280.756 187.362 280.659C187.32 280.562 187.31 280.454 187.334 280.35L189.768 271.358C189.781 271.309 189.805 271.264 189.838 271.226C189.871 271.187 189.912 271.157 189.957 271.136C190.003 271.116 190.053 271.107 190.103 271.109C190.152 271.111 190.201 271.124 190.245 271.148C190.337 271.2 190.411 271.28 190.456 271.377C190.501 271.474 190.515 271.584 190.496 271.69L188.056 280.7C188.04 280.747 188.015 280.789 187.982 280.825C187.949 280.86 187.909 280.888 187.864 280.906C187.82 280.924 187.772 280.933 187.724 280.93C187.676 280.928 187.63 280.915 187.587 280.893L187.566 280.889Z" fill="white"/>
<path d="M191.48 283.113L191.444 283.092C191.349 283.028 191.279 282.933 191.243 282.823C191.21 282.72 191.216 282.608 191.261 282.509L195.082 274.3C195.1 274.256 195.127 274.217 195.163 274.186C195.198 274.155 195.241 274.133 195.286 274.122C195.335 274.112 195.385 274.112 195.434 274.124C195.482 274.135 195.528 274.156 195.567 274.186C195.663 274.245 195.735 274.337 195.77 274.445C195.788 274.494 195.796 274.546 195.793 274.599C195.791 274.651 195.778 274.703 195.756 274.75L191.932 282.978C191.914 283.02 191.888 283.057 191.854 283.088C191.821 283.118 191.781 283.141 191.738 283.154C191.695 283.166 191.65 283.17 191.605 283.163C191.561 283.156 191.519 283.139 191.482 283.113L191.48 283.113Z" fill="white"/>
<path d="M189.551 281.998C189.457 281.942 189.384 281.855 189.347 281.751C189.307 281.653 189.307 281.542 189.347 281.443L192.393 272.801C192.397 272.744 192.415 272.689 192.446 272.642C192.478 272.595 192.52 272.556 192.57 272.53C192.622 272.506 192.678 272.496 192.734 272.499C192.791 272.502 192.845 272.519 192.894 272.549C193.004 272.611 193.087 272.714 193.123 272.837C193.142 272.895 193.148 272.956 193.141 273.016C193.134 273.076 193.114 273.134 193.082 273.186L190.036 281.828C190.024 281.878 190.001 281.924 189.967 281.963C189.933 282.001 189.89 282.029 189.843 282.046C189.793 282.06 189.742 282.063 189.691 282.055C189.641 282.047 189.593 282.027 189.551 281.998Z" fill="white"/>
</g>
<defs>
<linearGradient id="paint0_linear_283_4338" x1="340.027" y1="102.608" x2="390.203" y2="432.604" gradientUnits="userSpaceOnUse">
<stop stop-color="#7D809E"/>
<stop offset="0.99" stop-color="#373A5A"/>
</linearGradient>
<linearGradient id="paint1_linear_283_4338" x1="334.869" y1="-7.49249" x2="351.476" y2="101.732" gradientUnits="userSpaceOnUse">
<stop stop-color="#ACACC4"/>
<stop offset="0.99" stop-color="#7D809E"/>
</linearGradient>
<linearGradient id="paint2_linear_283_4338" x1="246.295" y1="6.19355" x2="313.197" y2="446.198" gradientUnits="userSpaceOnUse">
<stop stop-color="#9599BD"/>
<stop offset="0.99" stop-color="#5B5E7A"/>
</linearGradient>
<clipPath id="clip0_283_4338">
<rect width="540" height="533" fill="white"/>
</clipPath>
</defs>
</svg>
