<svg width="96" height="92" viewBox="0 0 96 92" fill="none" xmlns="http://www.w3.org/2000/svg">
<path d="M42.2548 84.8282L54.0586 84.6543M39.2097 76.4672L56.9156 76.2063M47.9686 67.9322L47.7178 45.5201M56.8215 67.8018L56.7745 63.5995C56.7177 58.5218 62.481 53.6332 66.2162 50.151C71.4813 45.2453 74.2048 38.7186 74.1198 31.1212C73.963 17.1137 62.0835 6.08085 47.2789 6.299C43.7883 6.34119 40.3376 7.038 37.1251 8.34937C33.9126 9.66075 31.0017 11.5608 28.5598 13.9403C26.1178 16.3198 24.1931 19.1318 22.8961 22.2147C21.5991 25.2975 20.9555 28.5904 21.0023 31.9039C21.0843 39.2299 24.0777 46.1119 29.3291 50.6945C33.12 54.0028 39.0113 58.7301 39.0687 63.8604L39.1157 68.0627L56.8215 67.8018Z" stroke="#515050" stroke-opacity="0.8" stroke-width="5" stroke-linecap="round" stroke-linejoin="round"/>
<path d="M54.6955 42.6152C54.6955 42.6152 50.7596 45.4752 47.7183 45.52C44.6769 45.5648 40.6784 42.8218 40.6784 42.8218" stroke="#777474" stroke-width="5" stroke-linecap="round" stroke-linejoin="round"/>
</svg>
