<svg width="72" height="48" viewBox="0 0 72 48" fill="none" xmlns="http://www.w3.org/2000/svg">
<path d="M28 44C28 46.2091 29.7909 48 32 48H40C42.2091 48 44 46.2091 44 44V44C44 41.7909 42.2091 40 40 40H32C29.7909 40 28 41.7909 28 44V44ZM4 0C1.79086 0 0 1.79086 0 4V4C0 6.20914 1.79086 8 4 8H68C70.2091 8 72 6.20914 72 4V4C72 1.79086 70.2091 0 68 0H4ZM12 24C12 26.2091 13.7909 28 16 28H56C58.2091 28 60 26.2091 60 24V24C60 21.7909 58.2091 20 56 20H16C13.7909 20 12 21.7909 12 24V24Z" fill="#515050" fill-opacity="0.8"/>
</svg>
