<svg width="76" height="72" viewBox="0 0 76 72" fill="none" xmlns="http://www.w3.org/2000/svg">
<path d="M45.4013 71.7855C45.6061 71.9155 45.8431 71.9892 46.0874 71.9989C46.3316 72.0086 46.574 71.9539 46.789 71.8405C47.0039 71.7272 47.1835 71.5594 47.3086 71.355C47.4337 71.1505 47.4997 70.917 47.4998 70.679M45.4013 71.7855L46.8823 10.5565C47.0724 10.6768 47.2285 10.8415 47.3364 11.0356C47.4442 11.2298 47.5004 11.4472 47.4998 11.6679V70.679M45.4013 71.7855L29.1157 61.4772M45.4013 71.7855L30.4999 60.3674M47.4998 70.679L46.2036 70.6788H46.1764L46.1397 70.6788L46.1039 70.6788H46.1018L45.4998 70.6787M47.4998 70.679H46.2039H46.1765H46.1397H46.1038H46.1017H45.4998V70.6787M45.4998 70.6787C45.4998 70.5456 45.5369 70.4184 45.6026 70.3111C45.6681 70.2042 45.7576 70.1234 45.8562 70.0714C45.9545 70.0196 46.0615 69.9963 46.1666 70.0005C46.271 70.0046 46.3761 70.0359 46.471 70.0956L45.4998 69.4808M45.4998 70.6787V69.4808M45.4998 69.4808L30.4999 59.9863M45.4998 69.4808V12.0477M30.4999 59.9863L30.5967 0.213454M30.4999 59.9863V2.52126M30.4999 59.9863L30.1876 59.7887M30.4999 59.9863V60.3674M30.4999 59.9863V60.3674M45.4998 12.0477L45.81 12.2448C45.7222 12.1886 45.6444 12.1083 45.5881 12.007C45.5319 11.9058 45.5004 11.7892 45.4998 11.6679M45.4998 12.0477V11.6679M45.4998 12.0477L30.4999 2.52126M45.4998 11.6679V11.6621C45.4998 11.664 45.4998 11.666 45.4998 11.6679ZM30.4999 2.52126V1.31827H29.8975L30.5967 0.213454M30.4999 2.52126L29.5272 1.90351L30.5967 0.213454M30.5967 0.213454C30.392 0.0839707 30.1553 0.0105987 29.9115 0.00106446C29.6676 -0.00846977 29.4256 0.0461864 29.211 0.159277C28.9964 0.272369 28.817 0.439709 28.6919 0.643676C28.5667 0.847643 28.5004 1.08069 28.4999 1.31827V60.3674C28.4993 60.5877 28.5554 60.8046 28.6629 60.9984C28.7705 61.1922 28.9261 61.3568 29.1157 61.4772M30.1876 59.7887L30.1853 59.7872L29.8278 60.352L29.8181 60.3674L29.8161 60.3706L29.1157 61.4772M30.1876 59.7887C30.2764 59.845 30.355 59.9258 30.4118 60.028C30.4679 60.1292 30.4993 60.246 30.4999 60.3674M30.1876 59.7887L29.8311 60.3502L29.8202 60.3674L29.8182 60.3706L29.1157 61.4772M30.4999 60.3674V60.3723C30.4999 60.3706 30.4999 60.369 30.4999 60.3674ZM3.7125 14.1885L3.78429 14.1487L3.85258 14.1032L21.0764 2.61994V60.0371L7.11252 68.931L7.1076 68.9342C7.10608 68.9351 7.09214 68.9439 7.05192 68.9649C6.52596 69.2359 5.93339 69.3715 5.33247 69.3554C4.73032 69.3392 4.14589 69.1713 3.63648 68.872C3.12737 68.5729 2.71301 68.1542 2.42862 67.6619C2.14446 67.1699 1.99817 66.6188 2.00003 66.0616V66.055L2.00004 17.0466L2.00002 17.0409C1.99838 16.47 2.15226 15.9057 2.45031 15.405C2.74863 14.9039 3.18235 14.4823 3.7125 14.1885ZM21.0764 1.38682V1.39259C21.0764 1.39066 21.0764 1.38874 21.0764 1.38682ZM23.0764 60.4169V1.39259V60.4169ZM68.9256 3.03958L68.9424 3.0312L68.959 3.0225C69.4807 2.74941 70.0706 2.61251 70.6689 2.62879C71.265 2.645 71.8431 2.81246 72.3457 3.11059C72.8647 3.42573 73.2855 3.8616 73.5728 4.37163C73.861 4.88309 74.0067 5.45427 73.9998 6.0306L73.9996 6.04261V6.05462V54.9374V54.9409C74.0006 55.5159 73.8439 56.084 73.5411 56.5869C73.2381 57.0903 72.7981 57.5124 72.2613 57.8039L72.181 57.8475L72.105 57.8983L54.9283 69.3707V11.9455L68.8931 3.06017L68.9063 3.05176L68.9194 3.04315C68.9206 3.04234 68.922 3.0415 68.9236 3.04065C68.9242 3.0403 68.9249 3.03994 68.9256 3.03958ZM54.9283 70.6056V70.5981C54.9283 70.6006 54.9283 70.6031 54.9283 70.6056ZM54.9283 11.5606C54.9283 11.5622 54.9283 11.5639 54.9283 11.5655L54.9283 11.5606Z" stroke="#515050" stroke-opacity="0.8" stroke-width="4"/>
</svg>
